<?xml version="1.0" encoding="UTF-8" standalone="yes"?>
<svg version="1.2" xml:space="preserve" width="960" height="960" viewBox="0 0 960 960" baseProfile="tiny-ps" xmlns="http://www.w3.org/2000/svg">
  <title>bimi-svg-tiny-12-ps</title>
  <defs id="defs6"/>
  <g id="g8" transform="matrix(1.3333333,0,0,-1.3333333,0,960)">
    <g id="g10">
      <g id="g12">
        <g id="g18" transform="translate(359.9991,7.0529)">
          <path d="m 0,0 c -194.615,0 -352.947,158.332 -352.947,352.947 0,194.617 158.332,352.949 352.947,352.949 194.617,0 352.947,-158.332 352.947,-352.949 C 352.947,158.332 194.617,0 0,0" id="path20" fill="#0f2935" fill-opacity="1" fill-rule="nonzero" stroke="none"/>
        </g>
        <g id="g22" transform="translate(360.0001,720.0002)">
          <path d="m 0,0 c -198.505,0 -360,-161.495 -360,-360 0,-198.505 161.495,-360 360,-360 198.505,0 360,161.495 360,360 C 360,-161.495 198.505,0 0,0 m 0,-14.106 c 191.032,0 345.894,-154.862 345.894,-345.894 0,-191.032 -154.862,-345.894 -345.894,-345.894 -191.032,0 -345.894,154.862 -345.894,345.894 0,191.032 154.862,345.894 345.894,345.894" id="path24" fill="#0b5060" fill-opacity="1" fill-rule="nonzero" stroke="none"/>
        </g>
      </g>
    </g>
    <g id="g26">
      <g id="g28">
        <g id="g34" transform="translate(94.9298,557.4407)">
          <path d="m 0,0 h -129.386 c -2.418,0 -4.382,1.963 -4.382,4.382 0,2.418 1.964,4.381 4.382,4.381 H -4.382 v 40.853 c 0,2.419 1.964,4.382 4.382,4.382 2.418,0 4.382,-1.963 4.382,-4.382 V 4.382 C 4.382,1.963 2.418,0 0,0" id="path36" fill="#0b5060" fill-opacity="1" fill-rule="nonzero" stroke="none"/>
        </g>
        <g id="g38" transform="translate(141.3077,557.4407)">
          <path d="m 0,0 c -2.418,0 -4.382,1.963 -4.382,4.382 v 75.552 h -115.103 c -2.418,0 -4.382,1.963 -4.382,4.381 0,2.419 1.964,4.382 4.382,4.382 L 0,88.697 c 2.418,0 4.382,-1.963 4.382,-4.382 V 4.382 C 4.382,1.963 2.418,0 0,0" id="path40" fill="#0b5060" fill-opacity="1" fill-rule="nonzero" stroke="none"/>
        </g>
        <g id="g42" transform="translate(106.2301,607.0558)">
          <path d="m 0,0 c 0,-6.242 -5.06,-11.302 -11.302,-11.302 -6.242,0 -11.302,5.06 -11.302,11.302 0,6.242 5.06,11.302 11.302,11.302 C -5.06,11.302 0,6.242 0,0" id="path44" fill="#0b5060" fill-opacity="1" fill-rule="nonzero" stroke="none"/>
        </g>
        <g id="g46" transform="translate(94.9298,617.625)">
          <path d="m 0,0 c -5.832,0 -10.573,-4.742 -10.573,-10.568 0,-5.831 4.741,-10.573 10.573,-10.573 5.826,0 10.568,4.742 10.568,10.573 C 10.568,-4.742 5.826,0 0,0 m 0,-22.602 c -6.636,0 -12.034,5.398 -12.034,12.034 0,6.631 5.398,12.029 12.034,12.029 6.631,0 12.028,-5.398 12.028,-12.029 0,-6.636 -5.397,-12.034 -12.028,-12.034" id="path48" fill="#0b5060" fill-opacity="1" fill-rule="nonzero" stroke="none"/>
        </g>
        <g id="g50" transform="translate(152.6091,561.822)">
          <path d="m 0,0 c 0,-6.242 -5.06,-11.302 -11.302,-11.302 -6.242,0 -11.302,5.06 -11.302,11.302 0,6.242 5.06,11.302 11.302,11.302 C -5.06,11.302 0,6.242 0,0" id="path52" fill="#0b5060" fill-opacity="1" fill-rule="nonzero" stroke="none"/>
        </g>
        <g id="g54" transform="translate(141.3077,572.3954)">
          <path d="m 0,0 c -5.832,0 -10.573,-4.742 -10.573,-10.573 0,-5.832 4.741,-10.573 10.573,-10.573 5.832,0 10.573,4.741 10.573,10.573 C 10.573,-4.742 5.832,0 0,0 m 0,-22.607 c -6.636,0 -12.034,5.398 -12.034,12.034 0,6.636 5.398,12.034 12.034,12.034 6.636,0 12.034,-5.398 12.034,-12.034 0,-6.636 -5.398,-12.034 -12.034,-12.034" id="path56" fill="#0b5060" fill-opacity="1" fill-rule="nonzero" stroke="none"/>
        </g>
        <g id="g58" transform="translate(201.1707,561.822)">
          <path d="m 0,0 c 0,-6.242 -5.06,-11.302 -11.302,-11.302 -6.242,0 -11.302,5.06 -11.302,11.302 0,6.242 5.06,11.302 11.302,11.302 C -5.06,11.302 0,6.242 0,0" id="path60" fill="#0b5060" fill-opacity="1" fill-rule="nonzero" stroke="none"/>
        </g>
        <g id="g62" transform="translate(189.8711,572.3954)">
          <path d="m 0,0 c -5.832,0 -10.573,-4.742 -10.573,-10.573 0,-5.832 4.741,-10.573 10.573,-10.573 5.826,0 10.568,4.741 10.568,10.573 C 10.568,-4.742 5.826,0 0,0 m 0,-22.607 c -6.636,0 -12.034,5.398 -12.034,12.034 0,6.636 5.398,12.034 12.034,12.034 6.631,0 12.028,-5.398 12.028,-12.034 0,-6.636 -5.397,-12.034 -12.028,-12.034" id="path64" fill="#0b5060" fill-opacity="1" fill-rule="nonzero" stroke="none"/>
        </g>
        <g id="g66" transform="translate(247.5497,700.2372)">
          <path d="m 0,0 c 0,6.242 -5.06,11.302 -11.302,11.302 -6.242,0 -11.302,-5.06 -11.302,-11.302 0,-6.242 5.06,-11.302 11.302,-11.302 C -5.06,-11.302 0,-6.242 0,0" id="path68" fill="#0b5060" fill-opacity="1" fill-rule="nonzero" stroke="none"/>
        </g>
        <g id="g70" transform="translate(236.249,710.8094)">
          <path d="m 0,0 c -5.832,0 -10.573,-4.741 -10.573,-10.573 0,-5.832 4.741,-10.573 10.573,-10.573 5.826,0 10.568,4.741 10.568,10.573 C 10.568,-4.741 5.826,0 0,0 m 0,-22.607 c -6.636,0 -12.034,5.398 -12.034,12.034 0,6.636 5.398,12.034 12.034,12.034 6.631,0 12.028,-5.398 12.028,-12.034 0,-6.636 -5.397,-12.034 -12.028,-12.034" id="path72" fill="#0b5060" fill-opacity="1" fill-rule="nonzero" stroke="none"/>
        </g>
        <g id="g74" transform="translate(293.9286,656.4655)">
          <path d="m 0,0 c 0,6.242 -5.06,11.302 -11.302,11.302 -6.242,0 -11.302,-5.06 -11.302,-11.302 0,-6.242 5.06,-11.302 11.302,-11.302 C -5.06,-11.302 0,-6.242 0,0" id="path76" fill="#0b5060" fill-opacity="1" fill-rule="nonzero" stroke="none"/>
        </g>
        <g id="g78" transform="translate(282.6269,667.0351)">
          <path d="m 0,0 c -5.832,0 -10.573,-4.741 -10.573,-10.568 0,-5.831 4.741,-10.573 10.573,-10.573 5.832,0 10.573,4.742 10.573,10.573 C 10.573,-4.741 5.832,0 0,0 m 0,-22.602 c -6.636,0 -12.034,5.398 -12.034,12.034 0,6.631 5.398,12.029 12.034,12.029 6.636,0 12.034,-5.398 12.034,-12.029 0,-6.636 -5.398,-12.034 -12.034,-12.034" id="path80" fill="#0b5060" fill-opacity="1" fill-rule="nonzero" stroke="none"/>
        </g>
        <g id="g82" transform="translate(293.9286,700.2372)">
          <path d="m 0,0 c 0,6.242 -5.06,11.302 -11.302,11.302 -6.242,0 -11.302,-5.06 -11.302,-11.302 0,-6.242 5.06,-11.302 11.302,-11.302 C -5.06,-11.302 0,-6.242 0,0" id="path84" fill="#0b5060" fill-opacity="1" fill-rule="nonzero" stroke="none"/>
        </g>
        <g id="g86" transform="translate(282.6269,710.8094)">
          <path d="m 0,0 c -5.832,0 -10.573,-4.741 -10.573,-10.573 0,-5.832 4.741,-10.573 10.573,-10.573 5.832,0 10.573,4.741 10.573,10.573 C 10.573,-4.741 5.832,0 0,0 m 0,-22.607 c -6.636,0 -12.034,5.398 -12.034,12.034 0,6.636 5.398,12.034 12.034,12.034 6.636,0 12.034,-5.398 12.034,-12.034 0,-6.636 -5.398,-12.034 -12.034,-12.034" id="path88" fill="#0b5060" fill-opacity="1" fill-rule="nonzero" stroke="none"/>
        </g>
        <g id="g90" transform="translate(247.5497,561.822)">
          <path d="m 0,0 c 0,6.242 -5.06,11.302 -11.302,11.302 -6.242,0 -11.302,-5.06 -11.302,-11.302 0,-6.242 5.06,-11.302 11.302,-11.302 C -5.06,-11.302 0,-6.242 0,0" id="path92" fill="#0b5060" fill-opacity="1" fill-rule="nonzero" stroke="none"/>
        </g>
        <g id="g94" transform="translate(236.249,572.3954)">
          <path d="m 0,0 c -5.832,0 -10.573,-4.742 -10.573,-10.573 0,-5.832 4.741,-10.573 10.573,-10.573 5.826,0 10.568,4.741 10.568,10.573 C 10.568,-4.742 5.826,0 0,0 m 0,-22.607 c -6.636,0 -12.034,5.398 -12.034,12.034 0,6.636 5.398,12.034 12.034,12.034 6.631,0 12.028,-5.398 12.028,-12.034 0,-6.636 -5.397,-12.034 -12.028,-12.034" id="path96" fill="#0b5060" fill-opacity="1" fill-rule="nonzero" stroke="none"/>
        </g>
        <g id="g98" transform="translate(386.6866,561.822)">
          <path d="m 0,0 c 0,6.242 -5.06,11.302 -11.302,11.302 -6.242,0 -11.302,-5.06 -11.302,-11.302 0,-6.242 5.06,-11.302 11.302,-11.302 C -5.06,-11.302 0,-6.242 0,0" id="path100" fill="#0b5060" fill-opacity="1" fill-rule="nonzero" stroke="none"/>
        </g>
        <g id="g102" transform="translate(375.3827,572.3954)">
          <path d="m 0,0 c -5.826,0 -10.568,-4.742 -10.568,-10.573 0,-5.832 4.742,-10.573 10.568,-10.573 5.832,0 10.573,4.741 10.573,10.573 C 10.573,-4.742 5.832,0 0,0 m 0,-22.607 c -6.631,0 -12.028,5.398 -12.028,12.034 0,6.636 5.397,12.034 12.028,12.034 6.636,0 12.034,-5.398 12.034,-12.034 0,-6.636 -5.398,-12.034 -12.034,-12.034" id="path104" fill="#0b5060" fill-opacity="1" fill-rule="nonzero" stroke="none"/>
        </g>
        <g id="g106" transform="translate(572.2026,561.822)">
          <path d="m 0,0 c 0,6.242 -5.06,11.302 -11.302,11.302 -6.242,0 -11.302,-5.06 -11.302,-11.302 0,-6.242 5.06,-11.302 11.302,-11.302 C -5.06,-11.302 0,-6.242 0,0" id="path108" fill="#0b5060" fill-opacity="1" fill-rule="nonzero" stroke="none"/>
        </g>
        <g id="g110" transform="translate(560.8995,572.3954)">
          <path d="m 0,0 c -5.826,0 -10.568,-4.742 -10.568,-10.573 0,-5.832 4.742,-10.573 10.568,-10.573 5.832,0 10.573,4.741 10.573,10.573 C 10.573,-4.742 5.832,0 0,0 m 0,-22.607 c -6.631,0 -12.028,5.398 -12.028,12.034 0,6.636 5.397,12.034 12.028,12.034 6.636,0 12.034,-5.398 12.034,-12.034 0,-6.636 -5.398,-12.034 -12.034,-12.034" id="path112" fill="#0b5060" fill-opacity="1" fill-rule="nonzero" stroke="none"/>
        </g>
        <g id="g114" transform="translate(618.5815,561.822)">
          <path d="m 0,0 c 0,6.242 -5.06,11.302 -11.302,11.302 -6.242,0 -11.302,-5.06 -11.302,-11.302 0,-6.242 5.06,-11.302 11.302,-11.302 C -5.06,-11.302 0,-6.242 0,0" id="path116" fill="#0b5060" fill-opacity="1" fill-rule="nonzero" stroke="none"/>
        </g>
        <g id="g118" transform="translate(607.2774,572.3954)">
          <path d="m 0,0 c -5.826,0 -10.568,-4.742 -10.568,-10.573 0,-5.832 4.742,-10.573 10.568,-10.573 5.832,0 10.573,4.741 10.573,10.573 C 10.573,-4.742 5.832,0 0,0 m 0,-22.607 c -6.631,0 -12.028,5.398 -12.028,12.034 0,6.636 5.397,12.034 12.028,12.034 6.636,0 12.034,-5.398 12.034,-12.034 0,-6.636 -5.398,-12.034 -12.034,-12.034" id="path120" fill="#0b5060" fill-opacity="1" fill-rule="nonzero" stroke="none"/>
        </g>
        <g id="g122" transform="translate(572.2026,607.0558)">
          <path d="m 0,0 c 0,6.242 -5.06,11.302 -11.302,11.302 -6.242,0 -11.302,-5.06 -11.302,-11.302 0,-6.242 5.06,-11.302 11.302,-11.302 C -5.06,-11.302 0,-6.242 0,0" id="path124" fill="#0b5060" fill-opacity="1" fill-rule="nonzero" stroke="none"/>
        </g>
        <g id="g126" transform="translate(560.8995,617.625)">
          <path d="m 0,0 c -5.826,0 -10.568,-4.742 -10.568,-10.568 0,-5.831 4.742,-10.573 10.568,-10.573 5.832,0 10.573,4.742 10.573,10.573 C 10.573,-4.742 5.832,0 0,0 m 0,-22.602 c -6.631,0 -12.028,5.398 -12.028,12.034 0,6.631 5.397,12.029 12.028,12.029 6.636,0 12.034,-5.398 12.034,-12.029 0,-6.636 -5.398,-12.034 -12.034,-12.034" id="path128" fill="#0b5060" fill-opacity="1" fill-rule="nonzero" stroke="none"/>
        </g>
        <g id="g130" transform="translate(247.5497,607.0558)">
          <path d="m 0,0 c 0,6.242 -5.06,11.302 -11.302,11.302 -6.242,0 -11.302,-5.06 -11.302,-11.302 0,-6.242 5.06,-11.302 11.302,-11.302 C -5.06,-11.302 0,-6.242 0,0" id="path132" fill="#0b5060" fill-opacity="1" fill-rule="nonzero" stroke="none"/>
        </g>
        <g id="g134" transform="translate(236.249,617.625)">
          <path d="m 0,0 c -5.832,0 -10.573,-4.742 -10.573,-10.568 0,-5.831 4.741,-10.573 10.573,-10.573 5.826,0 10.568,4.742 10.568,10.573 C 10.568,-4.742 5.826,0 0,0 m 0,-22.602 c -6.636,0 -12.034,5.398 -12.034,12.034 0,6.631 5.398,12.029 12.034,12.029 6.631,0 12.028,-5.398 12.028,-12.029 0,-6.636 -5.397,-12.034 -12.028,-12.034" id="path136" fill="#0b5060" fill-opacity="1" fill-rule="nonzero" stroke="none"/>
        </g>
        <g id="g138" transform="translate(340.3076,607.0558)">
          <path d="m 0,0 c 0,6.242 -5.06,11.302 -11.302,11.302 -6.242,0 -11.302,-5.06 -11.302,-11.302 0,-6.242 5.06,-11.302 11.302,-11.302 C -5.06,-11.302 0,-6.242 0,0" id="path140" fill="#0b5060" fill-opacity="1" fill-rule="nonzero" stroke="none"/>
        </g>
        <g id="g142" transform="translate(329.0048,617.625)">
          <path d="m 0,0 c -5.826,0 -10.568,-4.742 -10.568,-10.568 0,-5.831 4.742,-10.573 10.568,-10.573 5.832,0 10.573,4.742 10.573,10.573 C 10.573,-4.742 5.832,0 0,0 m 0,-22.602 c -6.631,0 -12.028,5.398 -12.028,12.034 0,6.631 5.397,12.029 12.028,12.029 6.636,0 12.034,-5.398 12.034,-12.029 0,-6.636 -5.398,-12.034 -12.034,-12.034" id="path144" fill="#0b5060" fill-opacity="1" fill-rule="nonzero" stroke="none"/>
        </g>
        <g id="g146" transform="translate(479.4446,656.4655)">
          <path d="m 0,0 c 0,6.242 -5.06,11.302 -11.302,11.302 -6.242,0 -11.302,-5.06 -11.302,-11.302 0,-6.242 5.06,-11.302 11.302,-11.302 C -5.06,-11.302 0,-6.242 0,0" id="path148" fill="#0b5060" fill-opacity="1" fill-rule="nonzero" stroke="none"/>
        </g>
        <g id="g150" transform="translate(468.1437,667.0351)">
          <path d="m 0,0 c -5.832,0 -10.573,-4.741 -10.573,-10.568 0,-5.831 4.741,-10.573 10.573,-10.573 5.832,0 10.573,4.742 10.573,10.573 C 10.573,-4.741 5.832,0 0,0 m 0,-22.602 c -6.636,0 -12.034,5.398 -12.034,12.034 0,6.631 5.398,12.029 12.034,12.029 6.636,0 12.034,-5.398 12.034,-12.029 0,-6.636 -5.398,-12.034 -12.034,-12.034" id="path152" fill="#0b5060" fill-opacity="1" fill-rule="nonzero" stroke="none"/>
        </g>
        <g id="g154" transform="translate(386.6866,607.0558)">
          <path d="m 0,0 c 0,6.242 -5.06,11.302 -11.302,11.302 -6.242,0 -11.302,-5.06 -11.302,-11.302 0,-6.242 5.06,-11.302 11.302,-11.302 C -5.06,-11.302 0,-6.242 0,0" id="path156" fill="#0b5060" fill-opacity="1" fill-rule="nonzero" stroke="none"/>
        </g>
        <g id="g158" transform="translate(375.3827,617.625)">
          <path d="m 0,0 c -5.826,0 -10.568,-4.742 -10.568,-10.568 0,-5.831 4.742,-10.573 10.568,-10.573 5.832,0 10.573,4.742 10.573,10.573 C 10.573,-4.742 5.832,0 0,0 m 0,-22.602 c -6.631,0 -12.028,5.398 -12.028,12.034 0,6.631 5.397,12.029 12.028,12.029 6.636,0 12.034,-5.398 12.034,-12.029 0,-6.636 -5.398,-12.034 -12.034,-12.034" id="path160" fill="#0b5060" fill-opacity="1" fill-rule="nonzero" stroke="none"/>
        </g>
        <g id="g162" transform="translate(386.6866,700.2372)">
          <path d="m 0,0 c 0,6.242 -5.06,11.302 -11.302,11.302 -6.242,0 -11.302,-5.06 -11.302,-11.302 0,-6.242 5.06,-11.302 11.302,-11.302 C -5.06,-11.302 0,-6.242 0,0" id="path164" fill="#0b5060" fill-opacity="1" fill-rule="nonzero" stroke="none"/>
        </g>
        <g id="g166" transform="translate(375.3827,710.8094)">
          <path d="m 0,0 c -5.826,0 -10.568,-4.741 -10.568,-10.573 0,-5.832 4.742,-10.573 10.568,-10.573 5.832,0 10.573,4.741 10.573,10.573 C 10.573,-4.741 5.832,0 0,0 m 0,-22.607 c -6.631,0 -12.028,5.398 -12.028,12.034 0,6.636 5.397,12.034 12.028,12.034 6.636,0 12.034,-5.398 12.034,-12.034 0,-6.636 -5.398,-12.034 -12.034,-12.034" id="path168" fill="#0b5060" fill-opacity="1" fill-rule="nonzero" stroke="none"/>
        </g>
        <g id="g170" transform="translate(525.8235,700.2372)">
          <path d="m 0,0 c 0,6.242 -5.06,11.302 -11.302,11.302 -6.242,0 -11.302,-5.06 -11.302,-11.302 0,-6.242 5.06,-11.302 11.302,-11.302 C -5.06,-11.302 0,-6.242 0,0" id="path172" fill="#0b5060" fill-opacity="1" fill-rule="nonzero" stroke="none"/>
        </g>
        <g id="g174" transform="translate(514.5216,710.8094)">
          <path d="m 0,0 c -5.832,0 -10.573,-4.741 -10.573,-10.573 0,-5.832 4.741,-10.573 10.573,-10.573 5.832,0 10.573,4.741 10.573,10.573 C 10.573,-4.741 5.832,0 0,0 m 0,-22.607 c -6.636,0 -12.034,5.398 -12.034,12.034 0,6.636 5.398,12.034 12.034,12.034 6.636,0 12.034,-5.398 12.034,-12.034 0,-6.636 -5.398,-12.034 -12.034,-12.034" id="path176" fill="#0b5060" fill-opacity="1" fill-rule="nonzero" stroke="none"/>
        </g>
        <g id="g178" transform="translate(433.0656,607.0558)">
          <path d="m 0,0 c 0,6.242 -5.06,11.302 -11.302,11.302 -6.242,0 -11.302,-5.06 -11.302,-11.302 0,-6.242 5.06,-11.302 11.302,-11.302 C -5.06,-11.302 0,-6.242 0,0" id="path180" fill="#0b5060" fill-opacity="1" fill-rule="nonzero" stroke="none"/>
        </g>
        <g id="g182" transform="translate(421.7658,617.625)">
          <path d="m 0,0 c -5.832,0 -10.573,-4.742 -10.573,-10.568 0,-5.831 4.741,-10.573 10.573,-10.573 5.826,0 10.568,4.742 10.568,10.573 C 10.568,-4.742 5.826,0 0,0 m 0,-22.602 c -6.636,0 -12.034,5.398 -12.034,12.034 0,6.631 5.398,12.029 12.034,12.029 6.631,0 12.028,-5.398 12.028,-12.029 0,-6.636 -5.397,-12.034 -12.028,-12.034" id="path184" fill="#0b5060" fill-opacity="1" fill-rule="nonzero" stroke="none"/>
        </g>
        <g id="g186" transform="translate(189.8711,557.4407)">
          <path d="m 0,0 c -2.418,0 -4.382,1.963 -4.382,4.382 v 184.966 c 0,2.418 1.964,4.382 4.382,4.382 2.418,0 4.382,-1.964 4.382,-4.382 V 4.382 C 4.382,1.963 2.418,0 0,0" id="path188" fill="#0b5060" fill-opacity="1" fill-rule="nonzero" stroke="none"/>
        </g>
        <g id="g190" transform="translate(189.8711,680.4923)">
          <path d="m 0,0 h -96.206 c -2.418,0 -4.382,1.963 -4.382,4.382 0,2.418 1.964,4.381 4.382,4.381 H 0 C 2.418,8.763 4.382,6.8 4.382,4.382 4.382,1.963 2.418,0 0,0" id="path192" fill="#0b5060" fill-opacity="1" fill-rule="nonzero" stroke="none"/>
        </g>
        <g id="g194" transform="translate(236.249,639.0306)">
          <path d="m 0,0 h -46.378 c -2.418,0 -4.382,1.963 -4.382,4.382 0,2.418 1.964,4.381 4.382,4.381 h 41.996 v 52.443 c 0,2.418 1.964,4.381 4.382,4.381 2.418,0 4.382,-1.963 4.382,-4.381 V 4.382 C 4.382,1.963 2.418,0 0,0" id="path196" fill="#0b5060" fill-opacity="1" fill-rule="nonzero" stroke="none"/>
        </g>
        <g id="g198" transform="translate(375.3827,557.4407)">
          <path d="m 0,0 h -139.134 c -2.418,0 -4.381,1.963 -4.381,4.382 0,2.418 1.963,4.381 4.381,4.381 H 0 C 2.418,8.763 4.382,6.8 4.382,4.382 4.382,1.963 2.418,0 0,0" id="path200" fill="#0b5060" fill-opacity="1" fill-rule="nonzero" stroke="none"/>
        </g>
        <g id="g202" transform="translate(282.6269,557.4407)">
          <path d="m 0,0 c -2.418,0 -4.382,1.963 -4.382,4.382 v 94.645 c 0,2.418 1.964,4.381 4.382,4.381 2.418,0 4.382,-1.963 4.382,-4.381 V 4.382 C 4.382,1.963 2.418,0 0,0" id="path204" fill="#0b5060" fill-opacity="1" fill-rule="nonzero" stroke="none"/>
        </g>
        <g id="g206" transform="translate(282.6269,602.6755)">
          <path d="m 0,0 h -46.378 c -2.418,0 -4.382,1.963 -4.382,4.382 0,2.418 1.964,4.381 4.382,4.381 H 0 C 2.418,8.763 4.382,6.8 4.382,4.382 4.382,1.963 2.418,0 0,0" id="path208" fill="#0b5060" fill-opacity="1" fill-rule="nonzero" stroke="none"/>
        </g>
        <g id="g210" transform="translate(329.0048,602.6755)">
          <path d="m 0,0 c -2.418,0 -4.382,1.963 -4.382,4.382 v 88.797 h -41.996 c -2.418,0 -4.382,1.963 -4.382,4.382 0,2.418 1.964,4.381 4.382,4.381 H 0 c 2.418,0 4.382,-1.963 4.382,-4.381 V 4.382 C 4.382,1.963 2.418,0 0,0" id="path212" fill="#0b5060" fill-opacity="1" fill-rule="nonzero" stroke="none"/>
        </g>
        <g id="g214" transform="translate(375.3827,602.6755)">
          <path d="m 0,0 c -2.418,0 -4.382,1.963 -4.382,4.382 v 49.41 c 0,2.418 1.964,4.381 4.382,4.381 h 92.761 c 2.418,0 4.382,-1.963 4.382,-4.381 0,-2.419 -1.964,-4.382 -4.382,-4.382 H 4.382 V 4.382 C 4.382,1.963 2.418,0 0,0" id="path216" fill="#0b5060" fill-opacity="1" fill-rule="nonzero" stroke="none"/>
        </g>
        <g id="g218" transform="translate(375.3827,652.0856)">
          <path d="m 0,0 c -2.418,0 -4.382,1.963 -4.382,4.382 v 43.769 c 0,2.418 1.964,4.381 4.382,4.381 2.418,0 4.382,-1.963 4.382,-4.381 V 4.382 C 4.382,1.963 2.418,0 0,0" id="path220" fill="#0b5060" fill-opacity="1" fill-rule="nonzero" stroke="none"/>
        </g>
        <g id="g222" transform="translate(468.1437,695.8546)">
          <path d="m 0,0 h -46.378 c -2.418,0 -4.382,1.963 -4.382,4.382 V 39.98 h -42.001 c -2.418,0 -4.382,1.963 -4.382,4.382 0,2.418 1.964,4.381 4.382,4.381 h 46.383 c 2.418,0 4.382,-1.963 4.382,-4.381 V 8.763 h 37.614 v 56.549 c 0,2.419 1.964,4.382 4.382,4.382 2.418,0 4.382,-1.963 4.382,-4.382 V 4.382 C 4.382,1.963 2.418,0 0,0" id="path224" fill="#0b5060" fill-opacity="1" fill-rule="nonzero" stroke="none"/>
        </g>
        <g id="g226" transform="translate(560.8995,557.4407)">
          <path d="m 0,0 h -139.134 c -2.418,0 -4.381,1.963 -4.381,4.382 v 45.234 c 0,2.419 1.963,4.382 4.381,4.382 2.419,0 4.382,-1.963 4.382,-4.382 V 8.763 L 0,8.763 C 2.418,8.763 4.382,6.8 4.382,4.382 4.382,1.963 2.418,0 0,0" id="path228" fill="#0b5060" fill-opacity="1" fill-rule="nonzero" stroke="none"/>
        </g>
        <g id="g230" transform="translate(468.1437,557.4407)">
          <path d="m 0,0 c -2.418,0 -4.382,1.963 -4.382,4.382 v 45.234 c 0,2.419 1.964,4.382 4.382,4.382 h 41.996 v 88.798 c 0,2.418 1.963,4.381 4.382,4.381 2.418,0 4.382,-1.963 4.382,-4.381 v -93.18 c 0,-2.418 -1.964,-4.381 -4.382,-4.381 H 4.382 V 4.382 C 4.382,1.963 2.418,0 0,0" id="path232" fill="#0b5060" fill-opacity="1" fill-rule="nonzero" stroke="none"/>
        </g>
        <g id="g234" transform="translate(560.8995,602.6755)">
          <path d="m 0,0 c -2.418,0 -4.382,1.963 -4.382,4.382 v 49.41 c 0,2.418 1.964,4.381 4.382,4.381 h 72.843 c 2.418,0 4.381,-1.963 4.381,-4.381 0,-2.419 -1.963,-4.382 -4.381,-4.382 H 4.382 V 4.382 C 4.382,1.963 2.418,0 0,0" id="path236" fill="#0b5060" fill-opacity="1" fill-rule="nonzero" stroke="none"/>
        </g>
        <g id="g238" transform="translate(560.8995,652.0856)">
          <path d="M 0,0 C -2.418,0 -4.382,1.963 -4.382,4.382 V 61.47 c 0,2.419 1.964,4.382 4.382,4.382 2.418,0 4.382,-1.963 4.382,-4.382 V 4.382 C 4.382,1.963 2.418,0 0,0" id="path240" fill="#0b5060" fill-opacity="1" fill-rule="nonzero" stroke="none"/>
        </g>
        <g id="g242" transform="translate(607.2774,557.4407)">
          <path d="m 0,0 c -2.418,0 -4.382,1.963 -4.382,4.382 v 45.234 c 0,2.419 1.964,4.382 4.382,4.382 h 69.572 c 2.418,0 4.382,-1.963 4.382,-4.382 0,-2.418 -1.964,-4.381 -4.382,-4.381 H 4.382 V 4.382 C 4.382,1.963 2.418,0 0,0" id="path244" fill="#0b5060" fill-opacity="1" fill-rule="nonzero" stroke="none"/>
        </g>
        <g id="g246" transform="translate(664.9852,557.4407)">
          <path d="m 0,0 h -57.708 c -2.418,0 -4.381,1.963 -4.381,4.382 0,2.418 1.963,4.381 4.381,4.381 H 0 C 2.418,8.763 4.382,6.8 4.382,4.382 4.382,1.963 2.418,0 0,0" id="path248" fill="#0b5060" fill-opacity="1" fill-rule="nonzero" stroke="none"/>
        </g>
        <g id="g250" transform="translate(628.0638,107.7318)">
          <path d="m 0,0 c -2.418,0 -4.382,1.963 -4.382,4.382 v 45.229 c 0,2.419 1.964,4.382 4.382,4.382 h 129.386 c 2.418,0 4.382,-1.963 4.382,-4.382 0,-2.418 -1.964,-4.381 -4.382,-4.381 H 4.382 V 4.382 C 4.382,1.963 2.418,0 0,0" id="path252" fill="#0b5060" fill-opacity="1" fill-rule="nonzero" stroke="none"/>
        </g>
        <g id="g254" transform="translate(701.1709,73.0278)">
          <path d="m 0,0 h -119.485 c -2.418,0 -4.382,1.963 -4.382,4.382 v 79.933 c 0,2.419 1.964,4.382 4.382,4.382 2.418,0 4.382,-1.963 4.382,-4.382 V 8.763 L 0,8.763 C 2.418,8.763 4.382,6.8 4.382,4.382 4.382,1.963 2.418,0 0,0" id="path256" fill="#0b5060" fill-opacity="1" fill-rule="nonzero" stroke="none"/>
        </g>
        <g id="g258" transform="translate(616.7639,112.1115)">
          <path d="m 0,0 c 0,6.242 5.06,11.302 11.302,11.302 6.242,0 11.302,-5.06 11.302,-11.302 0,-6.242 -5.06,-11.302 -11.302,-11.302 C 5.06,-11.302 0,-6.242 0,0" id="path260" fill="#0b5060" fill-opacity="1" fill-rule="nonzero" stroke="none"/>
        </g>
        <g id="g262" transform="translate(628.0638,122.6813)">
          <path d="m 0,0 c -5.826,0 -10.568,-4.742 -10.568,-10.568 0,-5.831 4.742,-10.573 10.568,-10.573 5.832,0 10.573,4.742 10.573,10.573 C 10.573,-4.742 5.832,0 0,0 m 0,-22.602 c -6.631,0 -12.028,5.398 -12.028,12.034 0,6.631 5.397,12.029 12.028,12.029 6.636,0 12.034,-5.398 12.034,-12.029 0,-6.636 -5.398,-12.034 -12.034,-12.034" id="path264" fill="#0b5060" fill-opacity="1" fill-rule="nonzero" stroke="none"/>
        </g>
        <g id="g266" transform="translate(570.3849,157.3454)">
          <path d="m 0,0 c 0,6.242 5.06,11.302 11.302,11.302 6.242,0 11.302,-5.06 11.302,-11.302 0,-6.242 -5.06,-11.302 -11.302,-11.302 C 5.06,-11.302 0,-6.242 0,0" id="path268" fill="#0b5060" fill-opacity="1" fill-rule="nonzero" stroke="none"/>
        </g>
        <g id="g270" transform="translate(581.6859,167.9162)">
          <path d="m 0,0 c -5.832,0 -10.573,-4.742 -10.573,-10.573 0,-5.826 4.741,-10.568 10.573,-10.568 5.832,0 10.573,4.742 10.573,10.568 C 10.573,-4.742 5.832,0 0,0 m 0,-22.602 c -6.636,0 -12.034,5.398 -12.034,12.029 0,6.636 5.398,12.034 12.034,12.034 6.636,0 12.034,-5.398 12.034,-12.034 0,-6.631 -5.398,-12.029 -12.034,-12.029" id="path272" fill="#0b5060" fill-opacity="1" fill-rule="nonzero" stroke="none"/>
        </g>
        <g id="g274" transform="translate(521.8233,157.3454)">
          <path d="m 0,0 c 0,6.242 5.06,11.302 11.302,11.302 6.242,0 11.302,-5.06 11.302,-11.302 0,-6.242 -5.06,-11.302 -11.302,-11.302 C 5.06,-11.302 0,-6.242 0,0" id="path276" fill="#0b5060" fill-opacity="1" fill-rule="nonzero" stroke="none"/>
        </g>
        <g id="g278" transform="translate(533.1225,167.9162)">
          <path d="m 0,0 c -5.826,0 -10.568,-4.742 -10.568,-10.573 0,-5.826 4.742,-10.568 10.568,-10.568 5.832,0 10.573,4.742 10.573,10.568 C 10.573,-4.742 5.832,0 0,0 m 0,-22.602 c -6.631,0 -12.028,5.398 -12.028,12.029 0,6.636 5.397,12.034 12.028,12.034 6.636,0 12.034,-5.398 12.034,-12.034 0,-6.631 -5.398,-12.029 -12.034,-12.029" id="path280" fill="#0b5060" fill-opacity="1" fill-rule="nonzero" stroke="none"/>
        </g>
        <g id="g282" transform="translate(475.4443,18.9302)">
          <path d="m 0,0 c 0,-6.242 5.06,-11.302 11.302,-11.302 6.242,0 11.302,5.06 11.302,11.302 0,6.242 -5.06,11.302 -11.302,11.302 C 5.06,11.302 0,6.242 0,0" id="path284" fill="#0b5060" fill-opacity="1" fill-rule="nonzero" stroke="none"/>
        </g>
        <g id="g286" transform="translate(486.7446,29.5022)">
          <path d="m 0,0 c -5.826,0 -10.568,-4.742 -10.568,-10.573 0,-5.826 4.742,-10.568 10.568,-10.568 5.832,0 10.573,4.742 10.573,10.568 C 10.573,-4.742 5.832,0 0,0 m 0,-22.602 c -6.631,0 -12.028,5.398 -12.028,12.029 0,6.636 5.397,12.034 12.028,12.034 6.636,0 12.034,-5.398 12.034,-12.034 0,-6.631 -5.398,-12.029 -12.034,-12.029" id="path288" fill="#0b5060" fill-opacity="1" fill-rule="nonzero" stroke="none"/>
        </g>
        <g id="g290" transform="translate(429.0653,62.7019)">
          <path d="m 0,0 c 0,-6.242 5.06,-11.302 11.302,-11.302 6.242,0 11.302,5.06 11.302,11.302 0,6.242 -5.06,11.302 -11.302,11.302 C 5.06,11.302 0,6.242 0,0" id="path292" fill="#0b5060" fill-opacity="1" fill-rule="nonzero" stroke="none"/>
        </g>
        <g id="g294" transform="translate(440.3668,73.2712)">
          <path d="m 0,0 c -5.832,0 -10.573,-4.742 -10.573,-10.568 0,-5.831 4.741,-10.573 10.573,-10.573 5.832,0 10.573,4.742 10.573,10.573 C 10.573,-4.742 5.832,0 0,0 m 0,-22.602 c -6.636,0 -12.034,5.398 -12.034,12.034 0,6.631 5.398,12.029 12.034,12.029 6.636,0 12.034,-5.398 12.034,-12.029 0,-6.636 -5.398,-12.034 -12.034,-12.034" id="path296" fill="#0b5060" fill-opacity="1" fill-rule="nonzero" stroke="none"/>
        </g>
        <g id="g298" transform="translate(429.0653,18.9302)">
          <path d="m 0,0 c 0,-6.242 5.06,-11.302 11.302,-11.302 6.242,0 11.302,5.06 11.302,11.302 0,6.242 -5.06,11.302 -11.302,11.302 C 5.06,11.302 0,6.242 0,0" id="path300" fill="#0b5060" fill-opacity="1" fill-rule="nonzero" stroke="none"/>
        </g>
        <g id="g302" transform="translate(440.3668,29.5022)">
          <path d="m 0,0 c -5.832,0 -10.573,-4.742 -10.573,-10.573 0,-5.826 4.741,-10.568 10.573,-10.568 5.832,0 10.573,4.742 10.573,10.568 C 10.573,-4.742 5.832,0 0,0 m 0,-22.602 c -6.636,0 -12.034,5.398 -12.034,12.029 0,6.636 5.398,12.034 12.034,12.034 6.636,0 12.034,-5.398 12.034,-12.034 0,-6.631 -5.398,-12.029 -12.034,-12.029" id="path304" fill="#0b5060" fill-opacity="1" fill-rule="nonzero" stroke="none"/>
        </g>
        <g id="g306" transform="translate(475.4443,157.3454)">
          <path d="m 0,0 c 0,-6.242 5.06,-11.302 11.302,-11.302 6.242,0 11.302,5.06 11.302,11.302 0,6.242 -5.06,11.302 -11.302,11.302 C 5.06,11.302 0,6.242 0,0" id="path308" fill="#0b5060" fill-opacity="1" fill-rule="nonzero" stroke="none"/>
        </g>
        <g id="g310" transform="translate(486.7446,167.9162)">
          <path d="m 0,0 c -5.826,0 -10.568,-4.742 -10.568,-10.573 0,-5.826 4.742,-10.568 10.568,-10.568 5.832,0 10.573,4.742 10.573,10.568 C 10.573,-4.742 5.832,0 0,0 m 0,-22.602 c -6.631,0 -12.028,5.398 -12.028,12.029 0,6.636 5.397,12.034 12.028,12.034 6.636,0 12.034,-5.398 12.034,-12.034 0,-6.631 -5.398,-12.029 -12.034,-12.029" id="path312" fill="#0b5060" fill-opacity="1" fill-rule="nonzero" stroke="none"/>
        </g>
        <g id="g314" transform="translate(336.3073,157.3454)">
          <path d="m 0,0 c 0,-6.242 5.06,-11.302 11.302,-11.302 6.242,0 11.302,5.06 11.302,11.302 0,6.242 -5.06,11.302 -11.302,11.302 C 5.06,11.302 0,6.242 0,0" id="path316" fill="#0b5060" fill-opacity="1" fill-rule="nonzero" stroke="none"/>
        </g>
        <g id="g318" transform="translate(347.611,167.9162)">
          <path d="m 0,0 c -5.832,0 -10.573,-4.742 -10.573,-10.573 0,-5.826 4.741,-10.568 10.573,-10.568 5.826,0 10.568,4.742 10.568,10.568 C 10.568,-4.742 5.826,0 0,0 m 0,-22.602 c -6.636,0 -12.034,5.398 -12.034,12.029 0,6.636 5.398,12.034 12.034,12.034 6.631,0 12.028,-5.398 12.028,-12.034 0,-6.631 -5.397,-12.029 -12.028,-12.029" id="path320" fill="#0b5060" fill-opacity="1" fill-rule="nonzero" stroke="none"/>
        </g>
        <g id="g322" transform="translate(150.7914,157.3454)">
          <path d="m 0,0 c 0,-6.242 5.06,-11.302 11.302,-11.302 6.242,0 11.302,5.06 11.302,11.302 0,6.242 -5.06,11.302 -11.302,11.302 C 5.06,11.302 0,6.242 0,0" id="path324" fill="#0b5060" fill-opacity="1" fill-rule="nonzero" stroke="none"/>
        </g>
        <g id="g326" transform="translate(162.0941,167.9162)">
          <path d="m 0,0 c -5.832,0 -10.573,-4.742 -10.573,-10.573 0,-5.826 4.741,-10.568 10.573,-10.568 5.832,0 10.573,4.742 10.573,10.568 C 10.573,-4.742 5.832,0 0,0 m 0,-22.602 c -6.636,0 -12.034,5.398 -12.034,12.029 0,6.636 5.398,12.034 12.034,12.034 6.636,0 12.034,-5.398 12.034,-12.034 0,-6.631 -5.398,-12.029 -12.034,-12.029" id="path328" fill="#0b5060" fill-opacity="1" fill-rule="nonzero" stroke="none"/>
        </g>
        <g id="g330" transform="translate(104.4124,157.3454)">
          <path d="m 0,0 c 0,-6.242 5.06,-11.302 11.302,-11.302 6.242,0 11.302,5.06 11.302,11.302 0,6.242 -5.06,11.302 -11.302,11.302 C 5.06,11.302 0,6.242 0,0" id="path332" fill="#0b5060" fill-opacity="1" fill-rule="nonzero" stroke="none"/>
        </g>
        <g id="g334" transform="translate(115.7163,167.9162)">
          <path d="m 0,0 c -5.832,0 -10.573,-4.742 -10.573,-10.573 0,-5.826 4.741,-10.568 10.573,-10.568 5.826,0 10.568,4.742 10.568,10.568 C 10.568,-4.742 5.826,0 0,0 m 0,-22.602 c -6.636,0 -12.034,5.398 -12.034,12.029 0,6.636 5.398,12.034 12.034,12.034 6.631,0 12.028,-5.398 12.028,-12.034 0,-6.631 -5.397,-12.029 -12.028,-12.029" id="path336" fill="#0b5060" fill-opacity="1" fill-rule="nonzero" stroke="none"/>
        </g>
        <g id="g338" transform="translate(150.7914,112.1115)">
          <path d="m 0,0 c 0,-6.242 5.06,-11.302 11.302,-11.302 6.242,0 11.302,5.06 11.302,11.302 0,6.242 -5.06,11.302 -11.302,11.302 C 5.06,11.302 0,6.242 0,0" id="path340" fill="#0b5060" fill-opacity="1" fill-rule="nonzero" stroke="none"/>
        </g>
        <g id="g342" transform="translate(162.0941,122.6813)">
          <path d="m 0,0 c -5.832,0 -10.573,-4.742 -10.573,-10.568 0,-5.831 4.741,-10.573 10.573,-10.573 5.832,0 10.573,4.742 10.573,10.573 C 10.573,-4.742 5.832,0 0,0 m 0,-22.602 c -6.636,0 -12.034,5.398 -12.034,12.034 0,6.631 5.398,12.029 12.034,12.029 6.636,0 12.034,-5.398 12.034,-12.029 0,-6.636 -5.398,-12.034 -12.034,-12.034" id="path344" fill="#0b5060" fill-opacity="1" fill-rule="nonzero" stroke="none"/>
        </g>
        <g id="g346" transform="translate(475.4443,112.1115)">
          <path d="m 0,0 c 0,-6.242 5.06,-11.302 11.302,-11.302 6.242,0 11.302,5.06 11.302,11.302 0,6.242 -5.06,11.302 -11.302,11.302 C 5.06,11.302 0,6.242 0,0" id="path348" fill="#0b5060" fill-opacity="1" fill-rule="nonzero" stroke="none"/>
        </g>
        <g id="g350" transform="translate(486.7446,122.6813)">
          <path d="m 0,0 c -5.826,0 -10.568,-4.742 -10.568,-10.568 0,-5.831 4.742,-10.573 10.568,-10.573 5.832,0 10.573,4.742 10.573,10.573 C 10.573,-4.742 5.832,0 0,0 m 0,-22.602 c -6.631,0 -12.028,5.398 -12.028,12.034 0,6.631 5.397,12.029 12.028,12.029 6.636,0 12.034,-5.398 12.034,-12.029 0,-6.636 -5.398,-12.034 -12.034,-12.034" id="path352" fill="#0b5060" fill-opacity="1" fill-rule="nonzero" stroke="none"/>
        </g>
        <g id="g354" transform="translate(382.6863,112.1115)">
          <path d="m 0,0 c 0,-6.242 5.06,-11.302 11.302,-11.302 6.242,0 11.302,5.06 11.302,11.302 0,6.242 -5.06,11.302 -11.302,11.302 C 5.06,11.302 0,6.242 0,0" id="path356" fill="#0b5060" fill-opacity="1" fill-rule="nonzero" stroke="none"/>
        </g>
        <g id="g358" transform="translate(393.9889,122.6813)">
          <path d="m 0,0 c -5.832,0 -10.573,-4.742 -10.573,-10.568 0,-5.831 4.741,-10.573 10.573,-10.573 5.832,0 10.573,4.742 10.573,10.573 C 10.573,-4.742 5.832,0 0,0 m 0,-22.602 c -6.636,0 -12.034,5.398 -12.034,12.034 0,6.631 5.398,12.029 12.034,12.029 6.636,0 12.034,-5.398 12.034,-12.029 0,-6.636 -5.398,-12.034 -12.034,-12.034" id="path360" fill="#0b5060" fill-opacity="1" fill-rule="nonzero" stroke="none"/>
        </g>
        <g id="g362" transform="translate(243.5494,62.7019)">
          <path d="m 0,0 c 0,-6.242 5.06,-11.302 11.302,-11.302 6.242,0 11.302,5.06 11.302,11.302 0,6.242 -5.06,11.302 -11.302,11.302 C 5.06,11.302 0,6.242 0,0" id="path364" fill="#0b5060" fill-opacity="1" fill-rule="nonzero" stroke="none"/>
        </g>
        <g id="g366" transform="translate(254.8499,73.2712)">
          <path d="m 0,0 c -5.826,0 -10.568,-4.742 -10.568,-10.568 0,-5.831 4.742,-10.573 10.568,-10.573 5.832,0 10.573,4.742 10.573,10.573 C 10.573,-4.742 5.832,0 0,0 m 0,-22.602 c -6.631,0 -12.028,5.398 -12.028,12.034 0,6.631 5.397,12.029 12.028,12.029 6.636,0 12.034,-5.398 12.034,-12.029 0,-6.636 -5.398,-12.034 -12.034,-12.034" id="path368" fill="#0b5060" fill-opacity="1" fill-rule="nonzero" stroke="none"/>
        </g>
        <g id="g370" transform="translate(336.3073,112.1115)">
          <path d="m 0,0 c 0,-6.242 5.06,-11.302 11.302,-11.302 6.242,0 11.302,5.06 11.302,11.302 0,6.242 -5.06,11.302 -11.302,11.302 C 5.06,11.302 0,6.242 0,0" id="path372" fill="#0b5060" fill-opacity="1" fill-rule="nonzero" stroke="none"/>
        </g>
        <g id="g374" transform="translate(347.611,122.6813)">
          <path d="m 0,0 c -5.832,0 -10.573,-4.742 -10.573,-10.568 0,-5.831 4.741,-10.573 10.573,-10.573 5.826,0 10.568,4.742 10.568,10.573 C 10.568,-4.742 5.826,0 0,0 m 0,-22.602 c -6.636,0 -12.034,5.398 -12.034,12.034 0,6.631 5.398,12.029 12.034,12.029 6.631,0 12.028,-5.398 12.028,-12.029 0,-6.636 -5.397,-12.034 -12.028,-12.034" id="path376" fill="#0b5060" fill-opacity="1" fill-rule="nonzero" stroke="none"/>
        </g>
        <g id="g378" transform="translate(336.3073,18.9302)">
          <path d="m 0,0 c 0,-6.242 5.06,-11.302 11.302,-11.302 6.242,0 11.302,5.06 11.302,11.302 0,6.242 -5.06,11.302 -11.302,11.302 C 5.06,11.302 0,6.242 0,0" id="path380" fill="#0b5060" fill-opacity="1" fill-rule="nonzero" stroke="none"/>
        </g>
        <g id="g382" transform="translate(347.611,29.5022)">
          <path d="m 0,0 c -5.832,0 -10.573,-4.742 -10.573,-10.573 0,-5.826 4.741,-10.568 10.573,-10.568 5.826,0 10.568,4.742 10.568,10.568 C 10.568,-4.742 5.826,0 0,0 m 0,-22.602 c -6.636,0 -12.034,5.398 -12.034,12.029 0,6.636 5.398,12.034 12.034,12.034 6.631,0 12.028,-5.398 12.028,-12.034 0,-6.631 -5.397,-12.029 -12.028,-12.029" id="path384" fill="#0b5060" fill-opacity="1" fill-rule="nonzero" stroke="none"/>
        </g>
        <g id="g386" transform="translate(197.1704,18.9302)">
          <path d="m 0,0 c 0,-6.242 5.06,-11.302 11.302,-11.302 6.242,0 11.302,5.06 11.302,11.302 0,6.242 -5.06,11.302 -11.302,11.302 C 5.06,11.302 0,6.242 0,0" id="path388" fill="#0b5060" fill-opacity="1" fill-rule="nonzero" stroke="none"/>
        </g>
        <g id="g390" transform="translate(208.472,29.5022)">
          <path d="m 0,0 c -5.832,0 -10.573,-4.742 -10.573,-10.573 0,-5.826 4.741,-10.568 10.573,-10.568 5.832,0 10.573,4.742 10.573,10.568 C 10.573,-4.742 5.832,0 0,0 m 0,-22.602 c -6.636,0 -12.034,5.398 -12.034,12.029 0,6.636 5.398,12.034 12.034,12.034 6.636,0 12.034,-5.398 12.034,-12.034 0,-6.631 -5.398,-12.029 -12.034,-12.029" id="path392" fill="#0b5060" fill-opacity="1" fill-rule="nonzero" stroke="none"/>
        </g>
        <g id="g394" transform="translate(289.9284,112.1115)">
          <path d="m 0,0 c 0,-6.242 5.06,-11.302 11.302,-11.302 6.242,0 11.302,5.06 11.302,11.302 0,6.242 -5.06,11.302 -11.302,11.302 C 5.06,11.302 0,6.242 0,0" id="path396" fill="#0b5060" fill-opacity="1" fill-rule="nonzero" stroke="none"/>
        </g>
        <g id="g398" transform="translate(301.2278,122.6813)">
          <path d="m 0,0 c -5.826,0 -10.568,-4.742 -10.568,-10.568 0,-5.831 4.742,-10.573 10.568,-10.573 5.832,0 10.573,4.742 10.573,10.573 C 10.573,-4.742 5.832,0 0,0 m 0,-22.602 c -6.631,0 -12.028,5.398 -12.028,12.034 0,6.631 5.397,12.029 12.028,12.029 6.636,0 12.034,-5.398 12.034,-12.029 0,-6.636 -5.398,-12.034 -12.034,-12.034" id="path400" fill="#0b5060" fill-opacity="1" fill-rule="nonzero" stroke="none"/>
        </g>
        <g id="g402" transform="translate(533.1225,-32.0051)">
          <path d="m 0,0 c -2.418,0 -4.382,1.963 -4.382,4.382 v 184.966 c 0,2.419 1.964,4.382 4.382,4.382 2.418,0 4.382,-1.963 4.382,-4.382 V 4.382 C 4.382,1.963 2.418,0 0,0" id="path404" fill="#0b5060" fill-opacity="1" fill-rule="nonzero" stroke="none"/>
        </g>
        <g id="g406" transform="translate(629.3286,29.9097)">
          <path d="m 0,0 h -96.206 c -2.418,0 -4.382,1.963 -4.382,4.382 0,2.418 1.964,4.381 4.382,4.381 H 0 C 2.418,8.763 4.382,6.8 4.382,4.382 4.382,1.963 2.418,0 0,0" id="path408" fill="#0b5060" fill-opacity="1" fill-rule="nonzero" stroke="none"/>
        </g>
        <g id="g410" transform="translate(486.7446,14.5474)">
          <path d="m 0,0 c -2.418,0 -4.382,1.963 -4.382,4.382 v 56.824 c 0,2.418 1.964,4.381 4.382,4.381 h 46.378 c 2.418,0 4.382,-1.963 4.382,-4.381 0,-2.419 -1.964,-4.382 -4.382,-4.382 H 4.382 V 4.382 C 4.382,1.963 2.418,0 0,0" id="path412" fill="#0b5060" fill-opacity="1" fill-rule="nonzero" stroke="none"/>
        </g>
        <g id="g414" transform="translate(486.7446,152.9614)">
          <path d="m 0,0 h -139.134 c -2.418,0 -4.381,1.963 -4.381,4.382 0,2.418 1.963,4.381 4.381,4.381 H 0 C 2.418,8.763 4.382,6.8 4.382,4.382 4.382,1.963 2.418,0 0,0" id="path416" fill="#0b5060" fill-opacity="1" fill-rule="nonzero" stroke="none"/>
        </g>
        <g id="g418" transform="translate(440.3668,58.3217)">
          <path d="m 0,0 c -2.418,0 -4.382,1.963 -4.382,4.382 v 94.639 c 0,2.419 1.964,4.382 4.382,4.382 2.418,0 4.382,-1.963 4.382,-4.382 V 4.382 C 4.382,1.963 2.418,0 0,0" id="path420" fill="#0b5060" fill-opacity="1" fill-rule="nonzero" stroke="none"/>
        </g>
        <g id="g422" transform="translate(486.7446,107.7318)">
          <path d="m 0,0 h -46.378 c -2.418,0 -4.382,1.963 -4.382,4.382 0,2.418 1.964,4.381 4.382,4.381 H 0 C 2.418,8.763 4.382,6.8 4.382,4.382 4.382,1.963 2.418,0 0,0" id="path424" fill="#0b5060" fill-opacity="1" fill-rule="nonzero" stroke="none"/>
        </g>
        <g id="g426" transform="translate(440.3668,14.5474)">
          <path d="m 0,0 h -46.378 c -2.418,0 -4.382,1.963 -4.382,4.382 v 93.184 c 0,2.418 1.964,4.382 4.382,4.382 2.418,0 4.382,-1.964 4.382,-4.382 V 8.763 H 0 C 2.418,8.763 4.382,6.8 4.382,4.382 4.382,1.963 2.418,0 0,0" id="path428" fill="#0b5060" fill-opacity="1" fill-rule="nonzero" stroke="none"/>
        </g>
        <g id="g430" transform="translate(347.611,58.3217)">
          <path d="m 0,0 h -92.761 c -2.418,0 -4.382,1.963 -4.382,4.382 0,2.418 1.964,4.381 4.382,4.381 h 88.379 v 45.029 c 0,2.418 1.964,4.381 4.382,4.381 2.418,0 4.382,-1.963 4.382,-4.381 V 4.382 C 4.382,1.963 2.418,0 0,0" id="path432" fill="#0b5060" fill-opacity="1" fill-rule="nonzero" stroke="none"/>
        </g>
        <g id="g434" transform="translate(347.611,14.5474)">
          <path d="m 0,0 c -2.418,0 -4.382,1.963 -4.382,4.382 v 43.774 c 0,2.418 1.964,4.382 4.382,4.382 2.418,0 4.382,-1.964 4.382,-4.382 V 4.382 C 4.382,1.963 2.418,0 0,0" id="path436" fill="#0b5060" fill-opacity="1" fill-rule="nonzero" stroke="none"/>
        </g>
        <g id="g438" transform="translate(254.8499,-46.3778)">
          <path d="m 0,0 c -2.418,0 -4.382,1.963 -4.382,4.382 v 60.925 c 0,2.418 1.964,4.382 4.382,4.382 h 46.378 c 2.418,0 4.382,-1.964 4.382,-4.382 V 29.709 h 42.001 c 2.418,0 4.382,-1.964 4.382,-4.382 0,-2.419 -1.964,-4.382 -4.382,-4.382 H 46.378 c -2.418,0 -4.382,1.963 -4.382,4.382 V 60.925 H 4.382 V 4.382 C 4.382,1.963 2.418,0 0,0" id="path440" fill="#0b5060" fill-opacity="1" fill-rule="nonzero" stroke="none"/>
        </g>
        <g id="g442" transform="translate(301.2278,107.7318)">
          <path d="M 0,0 C -2.418,0 -4.382,1.963 -4.382,4.382 V 45.23 h -134.752 c -2.418,0 -4.381,1.963 -4.381,4.381 0,2.419 1.963,4.382 4.381,4.382 L 0,53.993 c 2.418,0 4.382,-1.963 4.382,-4.382 V 4.382 C 4.382,1.963 2.418,0 0,0" id="path444" fill="#0b5060" fill-opacity="1" fill-rule="nonzero" stroke="none"/>
        </g>
        <g id="g446" transform="translate(208.472,14.5474)">
          <path d="m 0,0 c -2.418,0 -4.382,1.963 -4.382,4.382 v 93.184 c 0,2.418 1.964,4.382 4.382,4.382 h 41.996 v 40.848 c 0,2.418 1.964,4.381 4.382,4.381 2.418,0 4.382,-1.963 4.382,-4.381 v -45.23 c 0,-2.418 -1.964,-4.382 -4.382,-4.382 H 4.382 V 4.382 C 4.382,1.963 2.418,0 0,0" id="path448" fill="#0b5060" fill-opacity="1" fill-rule="nonzero" stroke="none"/>
        </g>
        <g id="g450" transform="translate(162.0941,58.3217)">
          <path d="m 0,0 h -72.842 c -2.419,0 -4.382,1.963 -4.382,4.382 0,2.418 1.963,4.381 4.382,4.381 h 68.46 v 45.029 c 0,2.418 1.964,4.381 4.382,4.381 2.418,0 4.382,-1.963 4.382,-4.381 V 4.382 C 4.382,1.963 2.418,0 0,0" id="path452" fill="#0b5060" fill-opacity="1" fill-rule="nonzero" stroke="none"/>
        </g>
        <g id="g454" transform="translate(162.0941,1.2331)">
          <path d="M 0,0 C -2.418,0 -4.382,1.963 -4.382,4.382 V 61.47 c 0,2.419 1.964,4.382 4.382,4.382 2.418,0 4.382,-1.963 4.382,-4.382 V 4.382 C 4.382,1.963 2.418,0 0,0" id="path456" fill="#0b5060" fill-opacity="1" fill-rule="nonzero" stroke="none"/>
        </g>
        <g id="g458" transform="translate(115.7163,107.7318)">
          <path d="m 0,0 h -69.572 c -2.418,0 -4.382,1.963 -4.382,4.382 0,2.418 1.964,4.381 4.382,4.381 h 65.19 v 40.848 c 0,2.419 1.964,4.382 4.382,4.382 2.418,0 4.382,-1.963 4.382,-4.382 V 4.382 C 4.382,1.963 2.418,0 0,0" id="path460" fill="#0b5060" fill-opacity="1" fill-rule="nonzero" stroke="none"/>
        </g>
        <g id="g462" transform="translate(52.8119,182.1637)">
          <path d="m 0,0 h -41.187 c -2.418,0 -4.381,1.963 -4.381,4.382 0,2.418 1.963,4.381 4.381,4.381 h 36.805 v 268.654 h -44.076 c -2.418,0 -4.381,1.963 -4.381,4.382 0,2.418 1.963,4.381 4.381,4.381 H 0 c 2.418,0 4.382,-1.963 4.382,-4.381 V 4.382 C 4.382,1.963 2.418,0 0,0" id="path464" fill="#0b5060" fill-opacity="1" fill-rule="nonzero" stroke="none"/>
        </g>
        <g id="g466" transform="translate(52.8119,417.447)">
          <path d="m 0,0 h -51.516 c -2.419,0 -4.382,1.963 -4.382,4.382 0,2.418 1.963,4.381 4.382,4.381 H 0 C 2.418,8.763 4.382,6.8 4.382,4.382 4.382,1.963 2.418,0 0,0" id="path468" fill="#0b5060" fill-opacity="1" fill-rule="nonzero" stroke="none"/>
        </g>
        <g id="g470" transform="translate(52.8119,294.8708)">
          <path d="m 0,0 h -51.516 c -2.419,0 -4.382,1.963 -4.382,4.382 0,2.418 1.963,4.381 4.382,4.381 H 0 C 2.418,8.763 4.382,6.8 4.382,4.382 4.382,1.963 2.418,0 0,0" id="path472" fill="#0b5060" fill-opacity="1" fill-rule="nonzero" stroke="none"/>
        </g>
        <g id="g474" transform="translate(52.8119,381.2242)">
          <path d="m 0,0 h -61.978 c -2.419,0 -4.382,1.963 -4.382,4.382 0,2.418 1.963,4.381 4.382,4.381 H 0 C 2.418,8.763 4.382,6.8 4.382,4.382 4.382,1.963 2.418,0 0,0" id="path476" fill="#0b5060" fill-opacity="1" fill-rule="nonzero" stroke="none"/>
        </g>
        <g id="g478" transform="translate(721.063,390.776)">
          <path d="m 0,0 h -47.135 c -2.418,0 -4.381,1.963 -4.381,4.382 v 66.116 c 0,2.419 1.963,4.382 4.381,4.382 h 37.44 c 2.419,0 4.382,-1.963 4.382,-4.382 0,-2.418 -1.963,-4.381 -4.382,-4.381 H -42.753 V 8.763 H 0 C 2.418,8.763 4.382,6.8 4.382,4.382 4.382,1.963 2.418,0 0,0" id="path480" fill="#0b5060" fill-opacity="1" fill-rule="nonzero" stroke="none"/>
        </g>
        <g id="g482" transform="translate(751.5394,343.9907)">
          <path d="m 0,0 h -86.035 c -2.418,0 -4.382,1.963 -4.382,4.382 0,2.418 1.964,4.381 4.382,4.381 H 0 C 2.418,8.763 4.382,6.8 4.382,4.382 4.382,1.963 2.418,0 0,0" id="path484" fill="#0b5060" fill-opacity="1" fill-rule="nonzero" stroke="none"/>
        </g>
        <g id="g486" transform="translate(665.5017,169.7619)">
          <path d="M 0,0 C -2.418,0 -4.382,1.963 -4.382,4.382 V 178.61 c 0,2.419 1.964,4.382 4.382,4.382 2.418,0 4.382,-1.963 4.382,-4.382 V 4.382 C 4.382,1.963 2.418,0 0,0" id="path488" fill="#0b5060" fill-opacity="1" fill-rule="nonzero" stroke="none"/>
        </g>
        <g id="g490" transform="translate(673.9284,452.5258)">
          <path d="m 0,0 c -2.418,0 -4.382,1.963 -4.382,4.382 v 75.53 c 0,2.419 1.964,4.382 4.382,4.382 2.418,0 4.382,-1.963 4.382,-4.382 V 4.382 C 4.382,1.963 2.418,0 0,0" id="path492" fill="#0b5060" fill-opacity="1" fill-rule="nonzero" stroke="none"/>
        </g>
        <g id="g494" transform="translate(721.063,268.4599)">
          <path d="m 0,0 h -56.104 c -2.419,0 -4.382,1.963 -4.382,4.382 0,2.418 1.963,4.381 4.382,4.381 H 0 C 2.418,8.763 4.382,6.8 4.382,4.382 4.382,1.963 2.418,0 0,0" id="path496" fill="#0b5060" fill-opacity="1" fill-rule="nonzero" stroke="none"/>
        </g>
      </g>
    </g>
    <g id="g498">
      <g id="g500">
        <g id="g506" transform="translate(136.963,359.8071)">
          <path d="M 0,0 H 8.605 C 34.41,0 53.442,19.031 53.442,44.84 v 41.711 c 0,25.938 -19.032,44.836 -44.837,44.836 H 0 c -7.69,0 -13.555,-4.82 -13.555,-11.731 V 11.731 C -13.555,4.824 -7.69,0 0,0 M 88.634,89.157 V 42.493 c 0,-41.581 -31.54,-72.343 -74.686,-72.343 h -62.825 v 191.087 h 62.825 c 43.146,0 74.686,-30.369 74.686,-72.08" id="path508" fill="#f8fb24" fill-opacity="1" fill-rule="nonzero" stroke="none"/>
        </g>
        <g id="g510" transform="translate(257.6874,521.044)">
          <path d="M 0,0 H 124.48 V -29.85 H 48.618 c -8.212,0 -13.296,-4.301 -13.296,-11.468 0,-7.43 5.084,-11.994 13.296,-11.994 h 75.862 v -29.98 H 49.919 c -8.991,0 -14.597,-5.606 -14.597,-14.597 v -93.198 H 0 Z" id="path512" fill="#f8fb24" fill-opacity="1" fill-rule="nonzero" stroke="none"/>
        </g>
        <g id="g516" transform="translate(531.1769,467.7321)">
          <path d="m 0,0 h 52.14 c 8.472,0 13.555,4.564 13.555,11.731 0,7.17 -5.083,11.731 -13.555,11.731 H 0 c -8.472,0 -13.555,-4.561 -13.555,-11.731 C -13.555,4.564 -8.472,0 0,0 M -48.877,53.312 H 59.048 c 24.244,0 41.84,-17.596 41.84,-41.581 0,-23.985 -17.596,-41.711 -41.84,-41.711 h -7.301 c -5.213,0 -7.689,-2.606 -7.689,-5.865 0,-1.565 0.652,-3.389 1.564,-5.083 l 53.701,-96.847 H 58.525 L 4.301,-37.669 c -1.172,2.083 -4.038,7.689 -9.907,7.689 -6.907,0 -7.949,-5.606 -7.949,-9.514 v -98.281 h -35.322 z" id="path518" fill="#f8fb24" fill-opacity="1" fill-rule="nonzero" stroke="none"/>
        </g>
        <g id="g520" transform="translate(87.9352,231.2651)">
          <path d="M 0,0 V 4.31 H 17.105 V 0.381 c 0,-10.769 6.336,-17.105 17.106,-17.105 10.136,0 16.218,5.068 16.344,13.493 C 50.682,4.563 45.36,8.87 36.174,8.998 L 29.712,9.123 C 11.72,9.504 0.95,19.07 0.95,35.985 c 0,16.724 12.734,27.621 31.994,27.621 21.032,0 33.323,-10.897 33.323,-29.204 V 30.283 H 49.162 v 3.738 c 0,9.059 -6.146,14.381 -16.346,14.381 -8.932,0 -14.761,-4.624 -14.761,-11.911 0,-7.032 5.195,-11.022 14.191,-11.15 l 6.525,-0.125 C 56.827,24.771 67.724,15.079 67.724,-2.154 67.724,-20.716 54.99,-31.738 33.957,-31.738 12.543,-31.738 0,-19.955 0,0" id="path522" fill="#f8fb24" fill-opacity="1" fill-rule="nonzero" stroke="none"/>
        </g>
        <g id="g524" transform="translate(172.7092,232.85)">
          <path d="m 0,0 v 28.698 c 0,20.21 14.572,33.703 36.365,33.703 21.793,0 36.3,-13.493 36.3,-34.4 V 25.807 H 55.56 v 2.194 c 0,11.277 -7.665,19.196 -19.195,19.196 -11.531,0 -19.196,-7.919 -19.196,-19.829 V 1.14 c 0,-11.911 7.665,-19.83 19.195,-19.83 11.531,0 19.196,7.919 19.196,19.324 V 3.08 H 72.665 V 0.634 C 72.665,-20.4 58.157,-33.894 36.364,-33.894 14.571,-33.894 0,-20.4 0,0" id="path526" fill="#f8fb24" fill-opacity="1" fill-rule="nonzero" stroke="none"/>
        </g>
        <g id="g528" transform="translate(283.3327,293.5408)">
          <path d="M 0,0 V -92.874 H -17.169 V 0 Z" id="path530" fill="#f8fb24" fill-opacity="1" fill-rule="nonzero" stroke="none"/>
        </g>
        <g id="g532" transform="translate(306.3919,293.5408)">
          <path d="M 0,0 H 60.502 V -14.508 H 23.631 c -3.992,0 -6.462,-2.091 -6.462,-5.575 0,-3.611 2.47,-5.827 6.462,-5.827 H 60.502 V -40.481 H 24.265 c -4.372,0 -7.096,-2.724 -7.096,-7.097 v -23.629 c 0,-4.435 2.724,-7.16 7.096,-7.16 H 60.502 V -92.874 H 0 Z" id="path534" fill="#f8fb24" fill-opacity="1" fill-rule="nonzero" stroke="none"/>
        </g>
        <g id="g536" transform="translate(387.9352,293.5408)">
          <path d="M 0,0 H 17.169 L 42.32,-14.888 c 4.941,-2.976 8.552,-0.759 8.552,4.943 V 0 H 68.041 V -92.874 H 50.872 v 48.782 c 0,3.864 -1.393,6.587 -4.814,8.552 l -20.337,12.099 c -4.941,2.852 -8.552,0.761 -8.552,-4.941 V -92.874 H 0 Z" id="path538" fill="#f8fb24" fill-opacity="1" fill-rule="nonzero" stroke="none"/>
        </g>
        <g id="g540" transform="translate(476.7657,232.8499)">
          <path d="m 0,0 v 28.698 c 0,20.21 14.572,33.703 36.365,33.703 21.793,0 36.3,-13.493 36.3,-34.4 V 25.808 H 55.56 v 2.193 c 0,11.277 -7.665,19.196 -19.195,19.196 -11.531,0 -19.196,-7.919 -19.196,-19.829 V 1.14 c 0,-11.911 7.665,-19.83 19.195,-19.83 11.531,0 19.196,7.919 19.196,19.324 V 3.08 H 72.665 V 0.634 C 72.665,-20.4 58.158,-33.894 36.364,-33.894 14.572,-33.894 0,-20.4 0,0" id="path542" fill="#f8fb24" fill-opacity="1" fill-rule="nonzero" stroke="none"/>
        </g>
        <g id="g544" transform="translate(570.2206,293.5407)">
          <path d="M 0,0 H 60.502 V -14.508 H 23.631 c -3.992,0 -6.462,-2.091 -6.462,-5.575 0,-3.611 2.47,-5.827 6.462,-5.827 H 60.502 V -40.481 H 24.265 c -4.372,0 -7.096,-2.724 -7.096,-7.097 v -23.629 c 0,-4.435 2.724,-7.16 7.096,-7.16 H 60.502 V -92.874 H 0 Z" id="path546" fill="#f8fb24" fill-opacity="1" fill-rule="nonzero" stroke="none"/>
        </g>
        <path d="m 445.535,329.957 h -35.322 v 191.087 h 35.322 z" id="path514" fill="#f8fb24" fill-opacity="1" fill-rule="nonzero" stroke="none"/>
      </g>
    </g>
  </g>
</svg>