<?xml version="1.0" encoding="UTF-8" standalone="yes"?>
<svg width="960" height="960" version="1.2" viewBox="0 0 960 960" baseProfile="tiny-ps" xmlns="http://www.w3.org/2000/svg">
  <title>bimi-svg-tiny-12-ps</title>
  <defs/>
  <g transform="matrix(1.33 0 0 -1.33 0 960)">
    <g>
      <g transform="translate(360 7.05)">
        <path d="m0 0c-195 0-353 158-353 353 0 195 158 353 353 353 195 0 353-158 353-353 0-195-158-353-353-353" fill="#0f2935"/>
      </g>
      <g transform="translate(360 720)">
        <path d="m0 0c-199 0-360-161-360-360s161-360 360-360 360 161 360 360-161 360-360 360m0-14.1c191 0 346-155 346-346s-155-346-346-346-346 155-346 346 155 346 346 346" fill="#0b5060"/>
      </g>
    </g>
    <g>
      <g transform="translate(94.9 557)">
        <path d="m0 0h-129c-2.42 0-4.38 1.96-4.38 4.38 0 2.42 1.96 4.38 4.38 4.38h125v40.9c0 2.42 1.96 4.38 4.38 4.38s4.38-1.96 4.38-4.38v-45.2c0-2.42-1.96-4.38-4.38-4.38" fill="#0b5060"/>
      </g>
      <g transform="translate(141 557)">
        <path d="m0 0c-2.42 0-4.38 1.96-4.38 4.38v75.6h-115c-2.42 0-4.38 1.96-4.38 4.38 0 2.42 1.96 4.38 4.38 4.38h119c2.42 0 4.38-1.96 4.38-4.38v-79.9c0-2.42-1.96-4.38-4.38-4.38" fill="#0b5060"/>
      </g>
      <g transform="translate(106 607)">
        <path d="m0 0c0-6.24-5.06-11.3-11.3-11.3s-11.3 5.06-11.3 11.3 5.06 11.3 11.3 11.3 11.3-5.06 11.3-11.3" fill="#0b5060"/>
      </g>
      <g transform="translate(94.9 618)">
        <path d="m0 0c-5.83 0-10.6-4.74-10.6-10.6 0-5.83 4.74-10.6 10.6-10.6 5.83 0 10.6 4.74 10.6 10.6 0 5.83-4.74 10.6-10.6 10.6m0-22.6c-6.64 0-12 5.4-12 12 0 6.63 5.4 12 12 12 6.63 0 12-5.4 12-12 0-6.64-5.4-12-12-12" fill="#0b5060"/>
      </g>
      <g transform="translate(153 562)">
        <path d="m0 0c0-6.24-5.06-11.3-11.3-11.3s-11.3 5.06-11.3 11.3 5.06 11.3 11.3 11.3 11.3-5.06 11.3-11.3" fill="#0b5060"/>
      </g>
      <g transform="translate(141 572)">
        <path d="m0 0c-5.83 0-10.6-4.74-10.6-10.6 0-5.83 4.74-10.6 10.6-10.6s10.6 4.74 10.6 10.6c0 5.83-4.74 10.6-10.6 10.6m0-22.6c-6.64 0-12 5.4-12 12s5.4 12 12 12 12-5.4 12-12-5.4-12-12-12" fill="#0b5060"/>
      </g>
      <g transform="translate(201 562)">
        <path d="m0 0c0-6.24-5.06-11.3-11.3-11.3s-11.3 5.06-11.3 11.3 5.06 11.3 11.3 11.3 11.3-5.06 11.3-11.3" fill="#0b5060"/>
      </g>
      <g transform="translate(190 572)">
        <path d="m0 0c-5.83 0-10.6-4.74-10.6-10.6 0-5.83 4.74-10.6 10.6-10.6 5.83 0 10.6 4.74 10.6 10.6 0 5.83-4.74 10.6-10.6 10.6m0-22.6c-6.64 0-12 5.4-12 12s5.4 12 12 12c6.63 0 12-5.4 12-12s-5.4-12-12-12" fill="#0b5060"/>
      </g>
      <g transform="translate(248 700)">
        <path d="m0 0c0 6.24-5.06 11.3-11.3 11.3s-11.3-5.06-11.3-11.3 5.06-11.3 11.3-11.3 11.3 5.06 11.3 11.3" fill="#0b5060"/>
      </g>
      <g transform="translate(236 711)">
        <path d="m0 0c-5.83 0-10.6-4.74-10.6-10.6s4.74-10.6 10.6-10.6c5.83 0 10.6 4.74 10.6 10.6s-4.74 10.6-10.6 10.6m0-22.6c-6.64 0-12 5.4-12 12s5.4 12 12 12c6.63 0 12-5.4 12-12s-5.4-12-12-12" fill="#0b5060"/>
      </g>
      <g transform="translate(294 656)">
        <path d="m0 0c0 6.24-5.06 11.3-11.3 11.3s-11.3-5.06-11.3-11.3 5.06-11.3 11.3-11.3 11.3 5.06 11.3 11.3" fill="#0b5060"/>
      </g>
      <g transform="translate(283 667)">
        <path d="m0 0c-5.83 0-10.6-4.74-10.6-10.6 0-5.83 4.74-10.6 10.6-10.6s10.6 4.74 10.6 10.6c0 5.83-4.74 10.6-10.6 10.6m0-22.6c-6.64 0-12 5.4-12 12 0 6.63 5.4 12 12 12s12-5.4 12-12c0-6.64-5.4-12-12-12" fill="#0b5060"/>
      </g>
      <g transform="translate(294 700)">
        <path d="m0 0c0 6.24-5.06 11.3-11.3 11.3s-11.3-5.06-11.3-11.3 5.06-11.3 11.3-11.3 11.3 5.06 11.3 11.3" fill="#0b5060"/>
      </g>
      <g transform="translate(283 711)">
        <path d="m0 0c-5.83 0-10.6-4.74-10.6-10.6s4.74-10.6 10.6-10.6 10.6 4.74 10.6 10.6-4.74 10.6-10.6 10.6m0-22.6c-6.64 0-12 5.4-12 12s5.4 12 12 12 12-5.4 12-12-5.4-12-12-12" fill="#0b5060"/>
      </g>
      <g transform="translate(248 562)">
        <path d="m0 0c0 6.24-5.06 11.3-11.3 11.3s-11.3-5.06-11.3-11.3 5.06-11.3 11.3-11.3 11.3 5.06 11.3 11.3" fill="#0b5060"/>
      </g>
      <g transform="translate(236 572)">
        <path d="m0 0c-5.83 0-10.6-4.74-10.6-10.6 0-5.83 4.74-10.6 10.6-10.6 5.83 0 10.6 4.74 10.6 10.6 0 5.83-4.74 10.6-10.6 10.6m0-22.6c-6.64 0-12 5.4-12 12s5.4 12 12 12c6.63 0 12-5.4 12-12s-5.4-12-12-12" fill="#0b5060"/>
      </g>
      <g transform="translate(387 562)">
        <path d="m0 0c0 6.24-5.06 11.3-11.3 11.3s-11.3-5.06-11.3-11.3 5.06-11.3 11.3-11.3 11.3 5.06 11.3 11.3" fill="#0b5060"/>
      </g>
      <g transform="translate(375 572)">
        <path d="m0 0c-5.83 0-10.6-4.74-10.6-10.6 0-5.83 4.74-10.6 10.6-10.6 5.83 0 10.6 4.74 10.6 10.6 0 5.83-4.74 10.6-10.6 10.6m0-22.6c-6.63 0-12 5.4-12 12s5.4 12 12 12c6.64 0 12-5.4 12-12s-5.4-12-12-12" fill="#0b5060"/>
      </g>
      <g transform="translate(572 562)">
        <path d="m0 0c0 6.24-5.06 11.3-11.3 11.3s-11.3-5.06-11.3-11.3 5.06-11.3 11.3-11.3 11.3 5.06 11.3 11.3" fill="#0b5060"/>
      </g>
      <g transform="translate(561 572)">
        <path d="m0 0c-5.83 0-10.6-4.74-10.6-10.6 0-5.83 4.74-10.6 10.6-10.6 5.83 0 10.6 4.74 10.6 10.6 0 5.83-4.74 10.6-10.6 10.6m0-22.6c-6.63 0-12 5.4-12 12s5.4 12 12 12c6.64 0 12-5.4 12-12s-5.4-12-12-12" fill="#0b5060"/>
      </g>
      <g transform="translate(619 562)">
        <path d="m0 0c0 6.24-5.06 11.3-11.3 11.3s-11.3-5.06-11.3-11.3 5.06-11.3 11.3-11.3 11.3 5.06 11.3 11.3" fill="#0b5060"/>
      </g>
      <g transform="translate(607 572)">
        <path d="m0 0c-5.83 0-10.6-4.74-10.6-10.6 0-5.83 4.74-10.6 10.6-10.6 5.83 0 10.6 4.74 10.6 10.6 0 5.83-4.74 10.6-10.6 10.6m0-22.6c-6.63 0-12 5.4-12 12s5.4 12 12 12c6.64 0 12-5.4 12-12s-5.4-12-12-12" fill="#0b5060"/>
      </g>
      <g transform="translate(572 607)">
        <path d="m0 0c0 6.24-5.06 11.3-11.3 11.3s-11.3-5.06-11.3-11.3 5.06-11.3 11.3-11.3 11.3 5.06 11.3 11.3" fill="#0b5060"/>
      </g>
      <g transform="translate(561 618)">
        <path d="m0 0c-5.83 0-10.6-4.74-10.6-10.6 0-5.83 4.74-10.6 10.6-10.6 5.83 0 10.6 4.74 10.6 10.6 0 5.83-4.74 10.6-10.6 10.6m0-22.6c-6.63 0-12 5.4-12 12 0 6.63 5.4 12 12 12 6.64 0 12-5.4 12-12 0-6.64-5.4-12-12-12" fill="#0b5060"/>
      </g>
      <g transform="translate(248 607)">
        <path d="m0 0c0 6.24-5.06 11.3-11.3 11.3s-11.3-5.06-11.3-11.3 5.06-11.3 11.3-11.3 11.3 5.06 11.3 11.3" fill="#0b5060"/>
      </g>
      <g transform="translate(236 618)">
        <path d="m0 0c-5.83 0-10.6-4.74-10.6-10.6 0-5.83 4.74-10.6 10.6-10.6 5.83 0 10.6 4.74 10.6 10.6 0 5.83-4.74 10.6-10.6 10.6m0-22.6c-6.64 0-12 5.4-12 12 0 6.63 5.4 12 12 12 6.63 0 12-5.4 12-12 0-6.64-5.4-12-12-12" fill="#0b5060"/>
      </g>
      <g transform="translate(340 607)">
        <path d="m0 0c0 6.24-5.06 11.3-11.3 11.3s-11.3-5.06-11.3-11.3 5.06-11.3 11.3-11.3 11.3 5.06 11.3 11.3" fill="#0b5060"/>
      </g>
      <g transform="translate(329 618)">
        <path d="m0 0c-5.83 0-10.6-4.74-10.6-10.6 0-5.83 4.74-10.6 10.6-10.6 5.83 0 10.6 4.74 10.6 10.6 0 5.83-4.74 10.6-10.6 10.6m0-22.6c-6.63 0-12 5.4-12 12 0 6.63 5.4 12 12 12 6.64 0 12-5.4 12-12 0-6.64-5.4-12-12-12" fill="#0b5060"/>
      </g>
      <g transform="translate(479 656)">
        <path d="m0 0c0 6.24-5.06 11.3-11.3 11.3s-11.3-5.06-11.3-11.3 5.06-11.3 11.3-11.3 11.3 5.06 11.3 11.3" fill="#0b5060"/>
      </g>
      <g transform="translate(468 667)">
        <path d="m0 0c-5.83 0-10.6-4.74-10.6-10.6 0-5.83 4.74-10.6 10.6-10.6s10.6 4.74 10.6 10.6c0 5.83-4.74 10.6-10.6 10.6m0-22.6c-6.64 0-12 5.4-12 12 0 6.63 5.4 12 12 12s12-5.4 12-12c0-6.64-5.4-12-12-12" fill="#0b5060"/>
      </g>
      <g transform="translate(387 607)">
        <path d="m0 0c0 6.24-5.06 11.3-11.3 11.3s-11.3-5.06-11.3-11.3 5.06-11.3 11.3-11.3 11.3 5.06 11.3 11.3" fill="#0b5060"/>
      </g>
      <g transform="translate(375 618)">
        <path d="m0 0c-5.83 0-10.6-4.74-10.6-10.6 0-5.83 4.74-10.6 10.6-10.6 5.83 0 10.6 4.74 10.6 10.6 0 5.83-4.74 10.6-10.6 10.6m0-22.6c-6.63 0-12 5.4-12 12 0 6.63 5.4 12 12 12 6.64 0 12-5.4 12-12 0-6.64-5.4-12-12-12" fill="#0b5060"/>
      </g>
      <g transform="translate(387 700)">
        <path d="m0 0c0 6.24-5.06 11.3-11.3 11.3s-11.3-5.06-11.3-11.3 5.06-11.3 11.3-11.3 11.3 5.06 11.3 11.3" fill="#0b5060"/>
      </g>
      <g transform="translate(375 711)">
        <path d="m0 0c-5.83 0-10.6-4.74-10.6-10.6s4.74-10.6 10.6-10.6c5.83 0 10.6 4.74 10.6 10.6s-4.74 10.6-10.6 10.6m0-22.6c-6.63 0-12 5.4-12 12s5.4 12 12 12c6.64 0 12-5.4 12-12s-5.4-12-12-12" fill="#0b5060"/>
      </g>
      <g transform="translate(526 700)">
        <path d="m0 0c0 6.24-5.06 11.3-11.3 11.3s-11.3-5.06-11.3-11.3 5.06-11.3 11.3-11.3 11.3 5.06 11.3 11.3" fill="#0b5060"/>
      </g>
      <g transform="translate(515 711)">
        <path d="m0 0c-5.83 0-10.6-4.74-10.6-10.6s4.74-10.6 10.6-10.6 10.6 4.74 10.6 10.6-4.74 10.6-10.6 10.6m0-22.6c-6.64 0-12 5.4-12 12s5.4 12 12 12 12-5.4 12-12-5.4-12-12-12" fill="#0b5060"/>
      </g>
      <g transform="translate(433 607)">
        <path d="m0 0c0 6.24-5.06 11.3-11.3 11.3s-11.3-5.06-11.3-11.3 5.06-11.3 11.3-11.3 11.3 5.06 11.3 11.3" fill="#0b5060"/>
      </g>
      <g transform="translate(422 618)">
        <path d="m0 0c-5.83 0-10.6-4.74-10.6-10.6 0-5.83 4.74-10.6 10.6-10.6 5.83 0 10.6 4.74 10.6 10.6 0 5.83-4.74 10.6-10.6 10.6m0-22.6c-6.64 0-12 5.4-12 12 0 6.63 5.4 12 12 12 6.63 0 12-5.4 12-12 0-6.64-5.4-12-12-12" fill="#0b5060"/>
      </g>
      <g transform="translate(190 557)">
        <path d="m0 0c-2.42 0-4.38 1.96-4.38 4.38v185c0 2.42 1.96 4.38 4.38 4.38s4.38-1.96 4.38-4.38v-185c0-2.42-1.96-4.38-4.38-4.38" fill="#0b5060"/>
      </g>
      <g transform="translate(190 680)">
        <path d="m0 0h-96.2c-2.42 0-4.38 1.96-4.38 4.38 0 2.42 1.96 4.38 4.38 4.38h96.2c2.42 0 4.38-1.96 4.38-4.38 0-2.42-1.96-4.38-4.38-4.38" fill="#0b5060"/>
      </g>
      <g transform="translate(236 639)">
        <path d="m0 0h-46.4c-2.42 0-4.38 1.96-4.38 4.38 0 2.42 1.96 4.38 4.38 4.38h42v52.4c0 2.42 1.96 4.38 4.38 4.38s4.38-1.96 4.38-4.38v-56.8c0-2.42-1.96-4.38-4.38-4.38" fill="#0b5060"/>
      </g>
      <g transform="translate(375 557)">
        <path d="m0 0h-139c-2.42 0-4.38 1.96-4.38 4.38 0 2.42 1.96 4.38 4.38 4.38h139c2.42 0 4.38-1.96 4.38-4.38 0-2.42-1.96-4.38-4.38-4.38" fill="#0b5060"/>
      </g>
      <g transform="translate(283 557)">
        <path d="m0 0c-2.42 0-4.38 1.96-4.38 4.38v94.6c0 2.42 1.96 4.38 4.38 4.38s4.38-1.96 4.38-4.38v-94.6c0-2.42-1.96-4.38-4.38-4.38" fill="#0b5060"/>
      </g>
      <g transform="translate(283 603)">
        <path d="m0 0h-46.4c-2.42 0-4.38 1.96-4.38 4.38 0 2.42 1.96 4.38 4.38 4.38h46.4c2.42 0 4.38-1.96 4.38-4.38 0-2.42-1.96-4.38-4.38-4.38" fill="#0b5060"/>
      </g>
      <g transform="translate(329 603)">
        <path d="m0 0c-2.42 0-4.38 1.96-4.38 4.38v88.8h-42c-2.42 0-4.38 1.96-4.38 4.38 0 2.42 1.96 4.38 4.38 4.38h46.4c2.42 0 4.38-1.96 4.38-4.38v-93.2c0-2.42-1.96-4.38-4.38-4.38" fill="#0b5060"/>
      </g>
      <g transform="translate(375 603)">
        <path d="m0 0c-2.42 0-4.38 1.96-4.38 4.38v49.4c0 2.42 1.96 4.38 4.38 4.38h92.8c2.42 0 4.38-1.96 4.38-4.38 0-2.42-1.96-4.38-4.38-4.38h-88.4v-45c0-2.42-1.96-4.38-4.38-4.38" fill="#0b5060"/>
      </g>
      <g transform="translate(375 652)">
        <path d="m0 0c-2.42 0-4.38 1.96-4.38 4.38v43.8c0 2.42 1.96 4.38 4.38 4.38s4.38-1.96 4.38-4.38v-43.8c0-2.42-1.96-4.38-4.38-4.38" fill="#0b5060"/>
      </g>
      <g transform="translate(468 696)">
        <path d="m0 0h-46.4c-2.42 0-4.38 1.96-4.38 4.38v35.6h-42c-2.42 0-4.38 1.96-4.38 4.38 0 2.42 1.96 4.38 4.38 4.38h46.4c2.42 0 4.38-1.96 4.38-4.38v-35.6h37.6v56.5c0 2.42 1.96 4.38 4.38 4.38s4.38-1.96 4.38-4.38v-60.9c0-2.42-1.96-4.38-4.38-4.38" fill="#0b5060"/>
      </g>
      <g transform="translate(561 557)">
        <path d="m0 0h-139c-2.42 0-4.38 1.96-4.38 4.38v45.2c0 2.42 1.96 4.38 4.38 4.38 2.42 0 4.38-1.96 4.38-4.38v-40.9h135c2.42 0 4.38-1.96 4.38-4.38 0-2.42-1.96-4.38-4.38-4.38" fill="#0b5060"/>
      </g>
      <g transform="translate(468 557)">
        <path d="m0 0c-2.42 0-4.38 1.96-4.38 4.38v45.2c0 2.42 1.96 4.38 4.38 4.38h42v88.8c0 2.42 1.96 4.38 4.38 4.38 2.42 0 4.38-1.96 4.38-4.38v-93.2c0-2.42-1.96-4.38-4.38-4.38h-42v-40.9c0-2.42-1.96-4.38-4.38-4.38" fill="#0b5060"/>
      </g>
      <g transform="translate(561 603)">
        <path d="m0 0c-2.42 0-4.38 1.96-4.38 4.38v49.4c0 2.42 1.96 4.38 4.38 4.38h72.8c2.42 0 4.38-1.96 4.38-4.38 0-2.42-1.96-4.38-4.38-4.38h-68.5v-45c0-2.42-1.96-4.38-4.38-4.38" fill="#0b5060"/>
      </g>
      <g transform="translate(561 652)">
        <path d="m0 0c-2.42 0-4.38 1.96-4.38 4.38v57.1c0 2.42 1.96 4.38 4.38 4.38s4.38-1.96 4.38-4.38v-57.1c0-2.42-1.96-4.38-4.38-4.38" fill="#0b5060"/>
      </g>
      <g transform="translate(607 557)">
        <path d="m0 0c-2.42 0-4.38 1.96-4.38 4.38v45.2c0 2.42 1.96 4.38 4.38 4.38h69.6c2.42 0 4.38-1.96 4.38-4.38 0-2.42-1.96-4.38-4.38-4.38h-65.2v-40.9c0-2.42-1.96-4.38-4.38-4.38" fill="#0b5060"/>
      </g>
      <g transform="translate(665 557)">
        <path d="m0 0h-57.7c-2.42 0-4.38 1.96-4.38 4.38 0 2.42 1.96 4.38 4.38 4.38h57.7c2.42 0 4.38-1.96 4.38-4.38 0-2.42-1.96-4.38-4.38-4.38" fill="#0b5060"/>
      </g>
      <g transform="translate(628 108)">
        <path d="m0 0c-2.42 0-4.38 1.96-4.38 4.38v45.2c0 2.42 1.96 4.38 4.38 4.38h129c2.42 0 4.38-1.96 4.38-4.38 0-2.42-1.96-4.38-4.38-4.38h-125v-40.8c0-2.42-1.96-4.38-4.38-4.38" fill="#0b5060"/>
      </g>
      <g transform="translate(701 73)">
        <path d="m0 0h-119c-2.42 0-4.38 1.96-4.38 4.38v79.9c0 2.42 1.96 4.38 4.38 4.38s4.38-1.96 4.38-4.38v-75.6h115c2.42 0 4.38-1.96 4.38-4.38 0-2.42-1.96-4.38-4.38-4.38" fill="#0b5060"/>
      </g>
      <g transform="translate(617 112)">
        <path d="m0 0c0 6.24 5.06 11.3 11.3 11.3s11.3-5.06 11.3-11.3-5.06-11.3-11.3-11.3-11.3 5.06-11.3 11.3" fill="#0b5060"/>
      </g>
      <g transform="translate(628 123)">
        <path d="m0 0c-5.83 0-10.6-4.74-10.6-10.6 0-5.83 4.74-10.6 10.6-10.6 5.83 0 10.6 4.74 10.6 10.6 0 5.83-4.74 10.6-10.6 10.6m0-22.6c-6.63 0-12 5.4-12 12 0 6.63 5.4 12 12 12 6.64 0 12-5.4 12-12 0-6.64-5.4-12-12-12" fill="#0b5060"/>
      </g>
      <g transform="translate(570 157)">
        <path d="m0 0c0 6.24 5.06 11.3 11.3 11.3s11.3-5.06 11.3-11.3-5.06-11.3-11.3-11.3-11.3 5.06-11.3 11.3" fill="#0b5060"/>
      </g>
      <g transform="translate(582 168)">
        <path d="m0 0c-5.83 0-10.6-4.74-10.6-10.6 0-5.83 4.74-10.6 10.6-10.6s10.6 4.74 10.6 10.6c0 5.83-4.74 10.6-10.6 10.6m0-22.6c-6.64 0-12 5.4-12 12 0 6.64 5.4 12 12 12s12-5.4 12-12c0-6.63-5.4-12-12-12" fill="#0b5060"/>
      </g>
      <g transform="translate(522 157)">
        <path d="m0 0c0 6.24 5.06 11.3 11.3 11.3s11.3-5.06 11.3-11.3-5.06-11.3-11.3-11.3-11.3 5.06-11.3 11.3" fill="#0b5060"/>
      </g>
      <g transform="translate(533 168)">
        <path d="m0 0c-5.83 0-10.6-4.74-10.6-10.6 0-5.83 4.74-10.6 10.6-10.6 5.83 0 10.6 4.74 10.6 10.6 0 5.83-4.74 10.6-10.6 10.6m0-22.6c-6.63 0-12 5.4-12 12 0 6.64 5.4 12 12 12 6.64 0 12-5.4 12-12 0-6.63-5.4-12-12-12" fill="#0b5060"/>
      </g>
      <g transform="translate(475 18.9)">
        <path d="m0 0c0-6.24 5.06-11.3 11.3-11.3s11.3 5.06 11.3 11.3-5.06 11.3-11.3 11.3-11.3-5.06-11.3-11.3" fill="#0b5060"/>
      </g>
      <g transform="translate(487 29.5)">
        <path d="m0 0c-5.83 0-10.6-4.74-10.6-10.6 0-5.83 4.74-10.6 10.6-10.6 5.83 0 10.6 4.74 10.6 10.6 0 5.83-4.74 10.6-10.6 10.6m0-22.6c-6.63 0-12 5.4-12 12 0 6.64 5.4 12 12 12 6.64 0 12-5.4 12-12 0-6.63-5.4-12-12-12" fill="#0b5060"/>
      </g>
      <g transform="translate(429 62.7)">
        <path d="m0 0c0-6.24 5.06-11.3 11.3-11.3s11.3 5.06 11.3 11.3-5.06 11.3-11.3 11.3-11.3-5.06-11.3-11.3" fill="#0b5060"/>
      </g>
      <g transform="translate(440 73.3)">
        <path d="m0 0c-5.83 0-10.6-4.74-10.6-10.6 0-5.83 4.74-10.6 10.6-10.6s10.6 4.74 10.6 10.6c0 5.83-4.74 10.6-10.6 10.6m0-22.6c-6.64 0-12 5.4-12 12 0 6.63 5.4 12 12 12s12-5.4 12-12c0-6.64-5.4-12-12-12" fill="#0b5060"/>
      </g>
      <g transform="translate(429 18.9)">
        <path d="m0 0c0-6.24 5.06-11.3 11.3-11.3s11.3 5.06 11.3 11.3-5.06 11.3-11.3 11.3-11.3-5.06-11.3-11.3" fill="#0b5060"/>
      </g>
      <g transform="translate(440 29.5)">
        <path d="m0 0c-5.83 0-10.6-4.74-10.6-10.6 0-5.83 4.74-10.6 10.6-10.6s10.6 4.74 10.6 10.6c0 5.83-4.74 10.6-10.6 10.6m0-22.6c-6.64 0-12 5.4-12 12 0 6.64 5.4 12 12 12s12-5.4 12-12c0-6.63-5.4-12-12-12" fill="#0b5060"/>
      </g>
      <g transform="translate(475 157)">
        <path d="m0 0c0-6.24 5.06-11.3 11.3-11.3s11.3 5.06 11.3 11.3-5.06 11.3-11.3 11.3-11.3-5.06-11.3-11.3" fill="#0b5060"/>
      </g>
      <g transform="translate(487 168)">
        <path d="m0 0c-5.83 0-10.6-4.74-10.6-10.6 0-5.83 4.74-10.6 10.6-10.6 5.83 0 10.6 4.74 10.6 10.6 0 5.83-4.74 10.6-10.6 10.6m0-22.6c-6.63 0-12 5.4-12 12 0 6.64 5.4 12 12 12 6.64 0 12-5.4 12-12 0-6.63-5.4-12-12-12" fill="#0b5060"/>
      </g>
      <g transform="translate(336 157)">
        <path d="m0 0c0-6.24 5.06-11.3 11.3-11.3s11.3 5.06 11.3 11.3-5.06 11.3-11.3 11.3-11.3-5.06-11.3-11.3" fill="#0b5060"/>
      </g>
      <g transform="translate(348 168)">
        <path d="m0 0c-5.83 0-10.6-4.74-10.6-10.6 0-5.83 4.74-10.6 10.6-10.6 5.83 0 10.6 4.74 10.6 10.6 0 5.83-4.74 10.6-10.6 10.6m0-22.6c-6.64 0-12 5.4-12 12 0 6.64 5.4 12 12 12 6.63 0 12-5.4 12-12 0-6.63-5.4-12-12-12" fill="#0b5060"/>
      </g>
      <g transform="translate(151 157)">
        <path d="m0 0c0-6.24 5.06-11.3 11.3-11.3s11.3 5.06 11.3 11.3-5.06 11.3-11.3 11.3-11.3-5.06-11.3-11.3" fill="#0b5060"/>
      </g>
      <g transform="translate(162 168)">
        <path d="m0 0c-5.83 0-10.6-4.74-10.6-10.6 0-5.83 4.74-10.6 10.6-10.6s10.6 4.74 10.6 10.6c0 5.83-4.74 10.6-10.6 10.6m0-22.6c-6.64 0-12 5.4-12 12 0 6.64 5.4 12 12 12s12-5.4 12-12c0-6.63-5.4-12-12-12" fill="#0b5060"/>
      </g>
      <g transform="translate(104 157)">
        <path d="m0 0c0-6.24 5.06-11.3 11.3-11.3s11.3 5.06 11.3 11.3-5.06 11.3-11.3 11.3-11.3-5.06-11.3-11.3" fill="#0b5060"/>
      </g>
      <g transform="translate(116 168)">
        <path d="m0 0c-5.83 0-10.6-4.74-10.6-10.6 0-5.83 4.74-10.6 10.6-10.6 5.83 0 10.6 4.74 10.6 10.6 0 5.83-4.74 10.6-10.6 10.6m0-22.6c-6.64 0-12 5.4-12 12 0 6.64 5.4 12 12 12 6.63 0 12-5.4 12-12 0-6.63-5.4-12-12-12" fill="#0b5060"/>
      </g>
      <g transform="translate(151 112)">
        <path d="m0 0c0-6.24 5.06-11.3 11.3-11.3s11.3 5.06 11.3 11.3-5.06 11.3-11.3 11.3-11.3-5.06-11.3-11.3" fill="#0b5060"/>
      </g>
      <g transform="translate(162 123)">
        <path d="m0 0c-5.83 0-10.6-4.74-10.6-10.6 0-5.83 4.74-10.6 10.6-10.6s10.6 4.74 10.6 10.6c0 5.83-4.74 10.6-10.6 10.6m0-22.6c-6.64 0-12 5.4-12 12 0 6.63 5.4 12 12 12s12-5.4 12-12c0-6.64-5.4-12-12-12" fill="#0b5060"/>
      </g>
      <g transform="translate(475 112)">
        <path d="m0 0c0-6.24 5.06-11.3 11.3-11.3s11.3 5.06 11.3 11.3-5.06 11.3-11.3 11.3-11.3-5.06-11.3-11.3" fill="#0b5060"/>
      </g>
      <g transform="translate(487 123)">
        <path d="m0 0c-5.83 0-10.6-4.74-10.6-10.6 0-5.83 4.74-10.6 10.6-10.6 5.83 0 10.6 4.74 10.6 10.6 0 5.83-4.74 10.6-10.6 10.6m0-22.6c-6.63 0-12 5.4-12 12 0 6.63 5.4 12 12 12 6.64 0 12-5.4 12-12 0-6.64-5.4-12-12-12" fill="#0b5060"/>
      </g>
      <g transform="translate(383 112)">
        <path d="m0 0c0-6.24 5.06-11.3 11.3-11.3s11.3 5.06 11.3 11.3-5.06 11.3-11.3 11.3-11.3-5.06-11.3-11.3" fill="#0b5060"/>
      </g>
      <g transform="translate(394 123)">
        <path d="m0 0c-5.83 0-10.6-4.74-10.6-10.6 0-5.83 4.74-10.6 10.6-10.6s10.6 4.74 10.6 10.6c0 5.83-4.74 10.6-10.6 10.6m0-22.6c-6.64 0-12 5.4-12 12 0 6.63 5.4 12 12 12s12-5.4 12-12c0-6.64-5.4-12-12-12" fill="#0b5060"/>
      </g>
      <g transform="translate(244 62.7)">
        <path d="m0 0c0-6.24 5.06-11.3 11.3-11.3s11.3 5.06 11.3 11.3-5.06 11.3-11.3 11.3-11.3-5.06-11.3-11.3" fill="#0b5060"/>
      </g>
      <g transform="translate(255 73.3)">
        <path d="m0 0c-5.83 0-10.6-4.74-10.6-10.6 0-5.83 4.74-10.6 10.6-10.6 5.83 0 10.6 4.74 10.6 10.6 0 5.83-4.74 10.6-10.6 10.6m0-22.6c-6.63 0-12 5.4-12 12 0 6.63 5.4 12 12 12 6.64 0 12-5.4 12-12 0-6.64-5.4-12-12-12" fill="#0b5060"/>
      </g>
      <g transform="translate(336 112)">
        <path d="m0 0c0-6.24 5.06-11.3 11.3-11.3s11.3 5.06 11.3 11.3-5.06 11.3-11.3 11.3-11.3-5.06-11.3-11.3" fill="#0b5060"/>
      </g>
      <g transform="translate(348 123)">
        <path d="m0 0c-5.83 0-10.6-4.74-10.6-10.6 0-5.83 4.74-10.6 10.6-10.6 5.83 0 10.6 4.74 10.6 10.6 0 5.83-4.74 10.6-10.6 10.6m0-22.6c-6.64 0-12 5.4-12 12 0 6.63 5.4 12 12 12 6.63 0 12-5.4 12-12 0-6.64-5.4-12-12-12" fill="#0b5060"/>
      </g>
      <g transform="translate(336 18.9)">
        <path d="m0 0c0-6.24 5.06-11.3 11.3-11.3s11.3 5.06 11.3 11.3-5.06 11.3-11.3 11.3-11.3-5.06-11.3-11.3" fill="#0b5060"/>
      </g>
      <g transform="translate(348 29.5)">
        <path d="m0 0c-5.83 0-10.6-4.74-10.6-10.6 0-5.83 4.74-10.6 10.6-10.6 5.83 0 10.6 4.74 10.6 10.6 0 5.83-4.74 10.6-10.6 10.6m0-22.6c-6.64 0-12 5.4-12 12 0 6.64 5.4 12 12 12 6.63 0 12-5.4 12-12 0-6.63-5.4-12-12-12" fill="#0b5060"/>
      </g>
      <g transform="translate(197 18.9)">
        <path d="m0 0c0-6.24 5.06-11.3 11.3-11.3s11.3 5.06 11.3 11.3-5.06 11.3-11.3 11.3-11.3-5.06-11.3-11.3" fill="#0b5060"/>
      </g>
      <g transform="translate(208 29.5)">
        <path d="m0 0c-5.83 0-10.6-4.74-10.6-10.6 0-5.83 4.74-10.6 10.6-10.6s10.6 4.74 10.6 10.6c0 5.83-4.74 10.6-10.6 10.6m0-22.6c-6.64 0-12 5.4-12 12 0 6.64 5.4 12 12 12s12-5.4 12-12c0-6.63-5.4-12-12-12" fill="#0b5060"/>
      </g>
      <g transform="translate(290 112)">
        <path d="m0 0c0-6.24 5.06-11.3 11.3-11.3s11.3 5.06 11.3 11.3-5.06 11.3-11.3 11.3-11.3-5.06-11.3-11.3" fill="#0b5060"/>
      </g>
      <g transform="translate(301 123)">
        <path d="m0 0c-5.83 0-10.6-4.74-10.6-10.6 0-5.83 4.74-10.6 10.6-10.6 5.83 0 10.6 4.74 10.6 10.6 0 5.83-4.74 10.6-10.6 10.6m0-22.6c-6.63 0-12 5.4-12 12 0 6.63 5.4 12 12 12 6.64 0 12-5.4 12-12 0-6.64-5.4-12-12-12" fill="#0b5060"/>
      </g>
      <g transform="translate(533 -32)">
        <path d="m0 0c-2.42 0-4.38 1.96-4.38 4.38v185c0 2.42 1.96 4.38 4.38 4.38s4.38-1.96 4.38-4.38v-185c0-2.42-1.96-4.38-4.38-4.38" fill="#0b5060"/>
      </g>
      <g transform="translate(629 29.9)">
        <path d="m0 0h-96.2c-2.42 0-4.38 1.96-4.38 4.38 0 2.42 1.96 4.38 4.38 4.38h96.2c2.42 0 4.38-1.96 4.38-4.38 0-2.42-1.96-4.38-4.38-4.38" fill="#0b5060"/>
      </g>
      <g transform="translate(487 14.5)">
        <path d="m0 0c-2.42 0-4.38 1.96-4.38 4.38v56.8c0 2.42 1.96 4.38 4.38 4.38h46.4c2.42 0 4.38-1.96 4.38-4.38 0-2.42-1.96-4.38-4.38-4.38h-42v-52.4c0-2.42-1.96-4.38-4.38-4.38" fill="#0b5060"/>
      </g>
      <g transform="translate(487 153)">
        <path d="m0 0h-139c-2.42 0-4.38 1.96-4.38 4.38 0 2.42 1.96 4.38 4.38 4.38h139c2.42 0 4.38-1.96 4.38-4.38 0-2.42-1.96-4.38-4.38-4.38" fill="#0b5060"/>
      </g>
      <g transform="translate(440 58.3)">
        <path d="m0 0c-2.42 0-4.38 1.96-4.38 4.38v94.6c0 2.42 1.96 4.38 4.38 4.38s4.38-1.96 4.38-4.38v-94.6c0-2.42-1.96-4.38-4.38-4.38" fill="#0b5060"/>
      </g>
      <g transform="translate(487 108)">
        <path d="m0 0h-46.4c-2.42 0-4.38 1.96-4.38 4.38 0 2.42 1.96 4.38 4.38 4.38h46.4c2.42 0 4.38-1.96 4.38-4.38 0-2.42-1.96-4.38-4.38-4.38" fill="#0b5060"/>
      </g>
      <g transform="translate(440 14.5)">
        <path d="m0 0h-46.4c-2.42 0-4.38 1.96-4.38 4.38v93.2c0 2.42 1.96 4.38 4.38 4.38s4.38-1.96 4.38-4.38v-88.8h42c2.42 0 4.38-1.96 4.38-4.38 0-2.42-1.96-4.38-4.38-4.38" fill="#0b5060"/>
      </g>
      <g transform="translate(348 58.3)">
        <path d="m0 0h-92.8c-2.42 0-4.38 1.96-4.38 4.38 0 2.42 1.96 4.38 4.38 4.38h88.4v45c0 2.42 1.96 4.38 4.38 4.38s4.38-1.96 4.38-4.38v-49.4c0-2.42-1.96-4.38-4.38-4.38" fill="#0b5060"/>
      </g>
      <g transform="translate(348 14.5)">
        <path d="m0 0c-2.42 0-4.38 1.96-4.38 4.38v43.8c0 2.42 1.96 4.38 4.38 4.38s4.38-1.96 4.38-4.38v-43.8c0-2.42-1.96-4.38-4.38-4.38" fill="#0b5060"/>
      </g>
      <g transform="translate(255 -46.4)">
        <path d="m0 0c-2.42 0-4.38 1.96-4.38 4.38v60.9c0 2.42 1.96 4.38 4.38 4.38h46.4c2.42 0 4.38-1.96 4.38-4.38v-35.6h42c2.42 0 4.38-1.96 4.38-4.38 0-2.42-1.96-4.38-4.38-4.38h-46.4c-2.42 0-4.38 1.96-4.38 4.38v35.6h-37.6v-56.5c0-2.42-1.96-4.38-4.38-4.38" fill="#0b5060"/>
      </g>
      <g transform="translate(301 108)">
        <path d="m0 0c-2.42 0-4.38 1.96-4.38 4.38v40.8h-135c-2.42 0-4.38 1.96-4.38 4.38 0 2.42 1.96 4.38 4.38 4.38h139c2.42 0 4.38-1.96 4.38-4.38v-45.2c0-2.42-1.96-4.38-4.38-4.38" fill="#0b5060"/>
      </g>
      <g transform="translate(208 14.5)">
        <path d="m0 0c-2.42 0-4.38 1.96-4.38 4.38v93.2c0 2.42 1.96 4.38 4.38 4.38h42v40.8c0 2.42 1.96 4.38 4.38 4.38s4.38-1.96 4.38-4.38v-45.2c0-2.42-1.96-4.38-4.38-4.38h-42v-88.8c0-2.42-1.96-4.38-4.38-4.38" fill="#0b5060"/>
      </g>
      <g transform="translate(162 58.3)">
        <path d="m0 0h-72.8c-2.42 0-4.38 1.96-4.38 4.38 0 2.42 1.96 4.38 4.38 4.38h68.5v45c0 2.42 1.96 4.38 4.38 4.38s4.38-1.96 4.38-4.38v-49.4c0-2.42-1.96-4.38-4.38-4.38" fill="#0b5060"/>
      </g>
      <g transform="translate(162 1.23)">
        <path d="m0 0c-2.42 0-4.38 1.96-4.38 4.38v57.1c0 2.42 1.96 4.38 4.38 4.38s4.38-1.96 4.38-4.38v-57.1c0-2.42-1.96-4.38-4.38-4.38" fill="#0b5060"/>
      </g>
      <g transform="translate(116 108)">
        <path d="m0 0h-69.6c-2.42 0-4.38 1.96-4.38 4.38 0 2.42 1.96 4.38 4.38 4.38h65.2v40.8c0 2.42 1.96 4.38 4.38 4.38s4.38-1.96 4.38-4.38v-45.2c0-2.42-1.96-4.38-4.38-4.38" fill="#0b5060"/>
      </g>
      <g transform="translate(52.8 182)">
        <path d="m0 0h-41.2c-2.42 0-4.38 1.96-4.38 4.38 0 2.42 1.96 4.38 4.38 4.38h36.8v269h-44.1c-2.42 0-4.38 1.96-4.38 4.38 0 2.42 1.96 4.38 4.38 4.38h48.5c2.42 0 4.38-1.96 4.38-4.38v-277c0-2.42-1.96-4.38-4.38-4.38" fill="#0b5060"/>
      </g>
      <g transform="translate(52.8 417)">
        <path d="m0 0h-51.5c-2.42 0-4.38 1.96-4.38 4.38 0 2.42 1.96 4.38 4.38 4.38h51.5c2.42 0 4.38-1.96 4.38-4.38 0-2.42-1.96-4.38-4.38-4.38" fill="#0b5060"/>
      </g>
      <g transform="translate(52.8 295)">
        <path d="m0 0h-51.5c-2.42 0-4.38 1.96-4.38 4.38 0 2.42 1.96 4.38 4.38 4.38h51.5c2.42 0 4.38-1.96 4.38-4.38 0-2.42-1.96-4.38-4.38-4.38" fill="#0b5060"/>
      </g>
      <g transform="translate(52.8 381)">
        <path d="m0 0h-62c-2.42 0-4.38 1.96-4.38 4.38 0 2.42 1.96 4.38 4.38 4.38h62c2.42 0 4.38-1.96 4.38-4.38 0-2.42-1.96-4.38-4.38-4.38" fill="#0b5060"/>
      </g>
      <g transform="translate(721 391)">
        <path d="m0 0h-47.1c-2.42 0-4.38 1.96-4.38 4.38v66.1c0 2.42 1.96 4.38 4.38 4.38h37.4c2.42 0 4.38-1.96 4.38-4.38 0-2.42-1.96-4.38-4.38-4.38h-33.1v-57.4h42.8c2.42 0 4.38-1.96 4.38-4.38 0-2.42-1.96-4.38-4.38-4.38" fill="#0b5060"/>
      </g>
      <g transform="translate(752 344)">
        <path d="m0 0h-86c-2.42 0-4.38 1.96-4.38 4.38 0 2.42 1.96 4.38 4.38 4.38h86c2.42 0 4.38-1.96 4.38-4.38 0-2.42-1.96-4.38-4.38-4.38" fill="#0b5060"/>
      </g>
      <g transform="translate(666 170)">
        <path d="m0 0c-2.42 0-4.38 1.96-4.38 4.38v174c0 2.42 1.96 4.38 4.38 4.38s4.38-1.96 4.38-4.38v-174c0-2.42-1.96-4.38-4.38-4.38" fill="#0b5060"/>
      </g>
      <g transform="translate(674 453)">
        <path d="m0 0c-2.42 0-4.38 1.96-4.38 4.38v75.5c0 2.42 1.96 4.38 4.38 4.38s4.38-1.96 4.38-4.38v-75.5c0-2.42-1.96-4.38-4.38-4.38" fill="#0b5060"/>
      </g>
      <g transform="translate(721 268)">
        <path d="m0 0h-56.1c-2.42 0-4.38 1.96-4.38 4.38 0 2.42 1.96 4.38 4.38 4.38h56.1c2.42 0 4.38-1.96 4.38-4.38 0-2.42-1.96-4.38-4.38-4.38" fill="#0b5060"/>
      </g>
    </g>
    <g>
      <g transform="translate(137 360)">
        <path d="m0 0h8.6c25.8 0 44.8 19 44.8 44.8v41.7c0 25.9-19 44.8-44.8 44.8h-8.6c-7.69 0-13.6-4.82-13.6-11.7v-108c0-6.91 5.86-11.7 13.6-11.7m88.6 89.2v-46.7c0-41.6-31.5-72.3-74.7-72.3h-62.8v191h62.8c43.1 0 74.7-30.4 74.7-72.1" fill="#f8fb24"/>
      </g>
      <g transform="translate(258 521)">
        <path d="m0 0h124v-29.8h-75.9c-8.21 0-13.3-4.3-13.3-11.5 0-7.43 5.08-12 13.3-12h75.9v-30h-74.6c-8.99 0-14.6-5.61-14.6-14.6v-93.2h-35.3z" fill="#f8fb24"/>
      </g>
      <g transform="translate(531 468)">
        <path d="m0 0h52.1c8.47 0 13.6 4.56 13.6 11.7 0 7.17-5.08 11.7-13.6 11.7h-52.1c-8.47 0-13.6-4.56-13.6-11.7 0-7.17 5.08-11.7 13.6-11.7m-48.9 53.3h108c24.2 0 41.8-17.6 41.8-41.6s-17.6-41.7-41.8-41.7h-7.3c-5.21 0-7.69-2.61-7.69-5.86 0-1.56 0.652-3.39 1.56-5.08l53.7-96.8h-40.8l-54.2 100c-1.17 2.08-4.04 7.69-9.91 7.69-6.91 0-7.95-5.61-7.95-9.51v-98.3h-35.3z" fill="#f8fb24"/>
      </g>
      <g transform="translate(87.9 231)">
        <path d="m0 0v4.31h17.1v-3.93c0-10.8 6.34-17.1 17.1-17.1 10.1 0 16.2 5.07 16.3 13.5 0.127 7.79-5.2 12.1-14.4 12.2l-6.46 0.125c-18 0.381-28.8 9.95-28.8 26.9 0 16.7 12.7 27.6 32 27.6 21 0 33.3-10.9 33.3-29.2v-4.12h-17.1v3.74c0 9.06-6.15 14.4-16.3 14.4-8.93 0-14.8-4.62-14.8-11.9 0-7.03 5.2-11 14.2-11.2l6.52-0.125c18.1-0.445 29-10.1 29-27.4 0-18.6-12.7-29.6-33.8-29.6-21.4 0-34 11.8-34 31.7" fill="#f8fb24"/>
      </g>
      <g transform="translate(173 233)">
        <path d="m0 0v28.7c0 20.2 14.6 33.7 36.4 33.7s36.3-13.5 36.3-34.4v-2.19h-17.1v2.19c0 11.3-7.66 19.2-19.2 19.2-11.5 0-19.2-7.92-19.2-19.8v-26.2c0-11.9 7.66-19.8 19.2-19.8 11.5 0 19.2 7.92 19.2 19.3v2.45h17.1v-2.45c0-21-14.5-34.5-36.3-34.5s-36.4 13.5-36.4 33.9" fill="#f8fb24"/>
      </g>
      <g transform="translate(283 294)">
        <path d="m0 0v-92.9h-17.2v92.9z" fill="#f8fb24"/>
      </g>
      <g transform="translate(306 294)">
        <path d="m0 0h60.5v-14.5h-36.9c-3.99 0-6.46-2.09-6.46-5.58 0-3.61 2.47-5.83 6.46-5.83h36.9v-14.6h-36.2c-4.37 0-7.1-2.72-7.1-7.1v-23.6c0-4.44 2.72-7.16 7.1-7.16h36.2v-14.5h-60.5z" fill="#f8fb24"/>
      </g>
      <g transform="translate(388 294)">
        <path d="m0 0h17.2l25.2-14.9c4.94-2.98 8.55-0.759 8.55 4.94v9.94h17.2v-92.9h-17.2v48.8c0 3.86-1.39 6.59-4.81 8.55l-20.3 12.1c-4.94 2.85-8.55 0.761-8.55-4.94v-64.5h-17.2z" fill="#f8fb24"/>
      </g>
      <g transform="translate(477 233)">
        <path d="m0 0v28.7c0 20.2 14.6 33.7 36.4 33.7s36.3-13.5 36.3-34.4v-2.19h-17.1v2.19c0 11.3-7.66 19.2-19.2 19.2-11.5 0-19.2-7.92-19.2-19.8v-26.2c0-11.9 7.66-19.8 19.2-19.8 11.5 0 19.2 7.92 19.2 19.3v2.45h17.1v-2.45c0-21-14.5-34.5-36.3-34.5-21.8 0-36.4 13.5-36.4 33.9" fill="#f8fb24"/>
      </g>
      <g transform="translate(570 294)">
        <path d="m0 0h60.5v-14.5h-36.9c-3.99 0-6.46-2.09-6.46-5.58 0-3.61 2.47-5.83 6.46-5.83h36.9v-14.6h-36.2c-4.37 0-7.1-2.72-7.1-7.1v-23.6c0-4.44 2.72-7.16 7.1-7.16h36.2v-14.5h-60.5z" fill="#f8fb24"/>
      </g>
      <path d="m446 330h-35.3v191h35.3z" fill="#f8fb24"/>
    </g>
  </g>
</svg>